<svg width="74" height="89" fill="none" xmlns="http://www.w3.org/2000/svg"><path d="M35.12.47A1.48 1.48 0 0034.04 0H1.48A1.477 1.477 0 00.087.983a1.486 1.486 0 00-.084.597L4.44 69.765v11.818a7.433 7.433 0 002.17 5.242A7.4 7.4 0 0011.84 89H66.6a7.4 7.4 0 005.23-2.175A7.433 7.433 0 0074 81.583V60.817a7.438 7.438 0 00-1.21-4.06 7.415 7.415 0 00-3.23-2.736V48.95c0-4.983-1.962-9.373-5.674-12.695a19.014 19.014 0 00-5.668-3.535 1.425 1.425 0 00-1.85.792c-.073.138-.765 1.367-2.896 2.593-2.148 1.236-6.203 2.709-13.325 2.709-2.724 0-5.093.277-7.107.832L35.517 1.58A1.488 1.488 0 0035.12.47zm-2.66 2.497l-.193 2.966H3.253L3.06 2.967h29.4zM23.68 80.1V62.3h47.36v17.8H23.68zm-8.88 0v-1.483a1.486 1.486 0 011.48-1.484h2.96a1.48 1.48 0 011.48 1.484V80.1H14.8zm5.92-5.678a4.412 4.412 0 00-1.48-.255h-2.96a4.44 4.44 0 00-3.138 1.305 4.46 4.46 0 00-1.302 3.145V80.1H7.4v-8.9h13.32v3.222zM7.655 83.067h13.214a7.395 7.395 0 001.335 2.966H11.84a4.44 4.44 0 01-2.562-.818 4.456 4.456 0 01-1.623-2.148zM66.6 86.033H28.12a4.44 4.44 0 01-2.562-.818 4.455 4.455 0 01-1.623-2.148h46.85a4.455 4.455 0 01-1.623 2.148 4.44 4.44 0 01-2.562.818zm4.185-26.7h-46.85a4.455 4.455 0 011.623-2.148 4.44 4.44 0 012.562-.818H66.6a4.44 4.44 0 012.562.818 4.455 4.455 0 011.623 2.148zM28.12 53.4v-2.967H66.6V53.4H28.12zm27.17-14.926c1.12-.66 2.12-1.504 2.96-2.497a17.068 17.068 0 013.742 2.561c2.685 2.435 4.207 5.433 4.538 8.929H28.201a5.172 5.172 0 011.194-2.452c1.832-2.116 5.55-3.234 10.752-3.234 6.455 0 11.549-1.113 15.143-3.307zm-28.194 4.67a8.07 8.07 0 00-1.923 5.612 1.496 1.496 0 00-.013.194v5.071a7.415 7.415 0 00-3.23 2.736 7.438 7.438 0 00-1.21 4.06v7.416H7.308L3.446 8.9h28.628l-2.078 31.94a9.886 9.886 0 00-2.9 2.304z" fill="#417F55"/><path d="M55.269 66.69c-2.137-.918-4.946-1.423-7.909-1.423s-5.772.505-7.909 1.423c-3.42 1.47-3.931 3.456-3.931 4.51 0 1.054.51 3.04 3.931 4.51 2.137.918 4.946 1.423 7.909 1.423s5.772-.505 7.909-1.423c3.42-1.47 3.931-3.456 3.931-4.51 0-1.054-.51-3.04-3.931-4.51zm-7.909 7.477c-5.509 0-8.88-1.921-8.88-2.967s3.371-2.967 8.88-2.967 8.88 1.921 8.88 2.967-3.371 2.967-8.88 2.967zm-20.72-62.3H8.88A1.478 1.478 0 007.4 13.35v8.9a1.485 1.485 0 001.48 1.483h17.76a1.478 1.478 0 001.48-1.483v-8.9a1.485 1.485 0 00-1.48-1.483zm-1.48 8.9h-14.8v-5.934h14.8v5.934zM23.68 26.7H11.84a1.478 1.478 0 00-1.48 1.483 1.485 1.485 0 001.48 1.484h11.84a1.478 1.478 0 001.48-1.484 1.485 1.485 0 00-1.48-1.483z" fill="#417F55"/></svg>