<svg width="104" height="91" fill="none" xmlns="http://www.w3.org/2000/svg"><path d="M52 35.502c9.744 0 17.672-7.963 17.672-17.75C69.672 7.962 61.744 0 52 0S34.328 7.963 34.328 17.751 42.256 35.502 52 35.502zm0-29.38c6.384 0 11.578 5.216 11.578 11.63 0 6.412-5.194 11.63-11.578 11.63-6.384 0-11.578-5.218-11.578-11.63 0-6.414 5.194-11.63 11.578-11.63zm35.75 29.38c6.16 0 11.172-5.034 11.172-11.222S93.91 13.058 87.75 13.058c-6.16 0-11.172 5.035-11.172 11.222 0 6.188 5.012 11.222 11.172 11.222zm0-16.323c2.8 0 5.078 2.289 5.078 5.101 0 2.813-2.278 5.101-5.078 5.101-2.8 0-5.078-2.288-5.078-5.1 0-2.813 2.278-5.102 5.078-5.102zm2.458 23.261h-4.713c-5.553 0-10.347 3.295-12.531 8.029-4.498-4.932-10.958-8.03-18.125-8.03h-5.678c-7.167 0-13.627 3.098-18.125 8.03-2.184-4.734-6.978-8.03-12.531-8.03h-4.713C6.187 42.44 0 48.617 0 56.21v22.284a5.983 5.983 0 005.974 5.978h18.632C24.92 88.123 27.976 91 31.692 91h40.616c3.716 0 6.773-2.877 7.086-6.53h18.419A6.195 6.195 0 00104 78.28V56.21c0-7.593-6.187-13.77-13.792-13.77zM6.094 56.21c0-4.218 3.453-7.65 7.698-7.65h4.713c4.245 0 7.698 3.432 7.698 7.65v2.096c-2.049 5.358-1.625 8.57-1.625 20.044H6.094V56.21zm67.234 27.645c0 .564-.457 1.024-1.02 1.024H31.692c-.563 0-1.02-.46-1.02-1.025V67.132c0-10.24 8.294-18.572 18.488-18.572h5.68c10.194 0 18.488 8.332 18.488 18.572v16.722zm24.578-5.575c0 .106 1.136.07-18.484.07 0-11.56.42-14.694-1.625-20.044V56.21c0-4.218 3.453-7.65 7.698-7.65h4.713c4.245 0 7.698 3.432 7.698 7.65v22.07zM16.25 35.502c6.16 0 11.172-5.034 11.172-11.222S22.41 13.058 16.25 13.058c-6.16 0-11.172 5.035-11.172 11.222 0 6.188 5.012 11.222 11.172 11.222zm0-16.323c2.8 0 5.078 2.289 5.078 5.101 0 2.813-2.278 5.101-5.078 5.101-2.8 0-5.078-2.288-5.078-5.1 0-2.813 2.278-5.102 5.078-5.102z" fill="#417F55"/></svg>