<svg width="94" height="63" fill="none" xmlns="http://www.w3.org/2000/svg"><path d="M19.157 29.026a22.668 22.668 0 012.685-1.19V24.65c0-.762.614-1.383 1.374-1.383.76 0 1.379.621 1.379 1.383v2.31c2.732-.735 5.355-1.085 6.875-1.147.598-.016 1.212-.005 1.816-.005V24.65c0-.762.614-1.382 1.374-1.382.765 0 1.379.62 1.379 1.382v1.158h2.68v-3.385c0-1.21-.494-2.31-1.29-3.114a4.374 4.374 0 00-3.102-1.294h-1.868a7.43 7.43 0 01-7.042 0h-1.863a4.374 4.374 0 00-3.102 1.294 4.39 4.39 0 00-1.296 3.114v6.603zm25-3.218V24.65a1.38 1.38 0 011.375-1.383 1.38 1.38 0 011.379 1.383v1.158h8.691V24.65a1.38 1.38 0 011.38-1.383c.76 0 1.373.621 1.373 1.383v1.455a8.63 8.63 0 012.685 1.283v-4.965c0-1.21-.5-2.311-1.296-3.114a4.374 4.374 0 00-3.101-1.294h-1.869a7.43 7.43 0 01-7.036 0H45.87a4.374 4.374 0 00-3.102 1.294 4.411 4.411 0 00-1.296 3.114v3.385h2.686zm19.636 4.871a8.468 8.468 0 01-.026 7.307c.875-.438 1.811-.824 2.707-1.22V24.65a1.38 1.38 0 011.379-1.383c.76 0 1.374.621 1.374 1.383v10.88l8.69-3.886V24.65c0-.762.62-1.383 1.38-1.383.76 0 1.374.621 1.374 1.383v5.763l1.457-.652c.4-.177.812-.323 1.228-.438v-6.9c0-1.21-.494-2.311-1.296-3.114a4.374 4.374 0 00-3.102-1.294h-1.863a7.428 7.428 0 01-7.041 0h-1.868a4.374 4.374 0 00-3.102 1.293 4.406 4.406 0 00-1.29 3.114v8.257zm22.316-1.643c.859.057 1.702.24 2.498.548a8.466 8.466 0 014.71 4.47c.91 2.05.859 4.068.151 5.925-.765 1.997-2.295 3.776-4.19 5.148l-7.436 5.393a1.368 1.368 0 01-1.92-.308 1.384 1.384 0 01.306-1.925l7.437-5.392c1.483-1.075 2.67-2.426 3.232-3.897.458-1.205.494-2.508-.088-3.823a5.698 5.698 0 00-3.18-3.015 5.686 5.686 0 00-4.382.115l-18.043 8.07c-1.005.505-2.004.985-3.092 1.366-1.087.375-2.45.688-3.606.688H38.345c-.76 0-1.374-.615-1.374-1.377 0-.761.614-1.382 1.374-1.382h19.921a5.727 5.727 0 002.54-2.024 5.718 5.718 0 00-.635-7.36 5.705 5.705 0 00-4.049-1.69H31.558c-1.883 0-4.803.642-6.614 1.159-1.822.51-3.68 1.215-5.215 2.143.573 1.049.9 2.253.9 3.531v5.268c0 .762-.614 1.383-1.373 1.383-.76 0-1.38-.621-1.38-1.383V35.4c0-2.45-1.94-4.548-4.433-4.548H7.187c-2.482 0-4.434 2.087-4.434 4.548v16.998a4.59 4.59 0 001.311 3.219 4.361 4.361 0 003.123 1.33h6.255a4.372 4.372 0 003.128-1.33 4.598 4.598 0 001.306-3.218v-5.274c0-.761.62-1.377 1.38-1.377.76 0 1.373.616 1.373 1.377v5.273a7.3 7.3 0 01-.473 2.598c.723.511 1.467.97 2.237 1.346 1.057.51 2.145.865 3.248.965l29.206 2.68c4.19.392 8.207.762 12.73-2.519l7.436-5.393a1.377 1.377 0 011.92.308 1.384 1.384 0 01-.306 1.925L69.19 59.7c-5.355 3.885-9.872 3.463-14.593 3.025l-29.2-2.681c-1.468-.13-2.873-.58-4.195-1.226a17.826 17.826 0 01-2.488-1.47c-1.358 1.491-3.252 2.357-5.271 2.357H7.187c-1.978 0-3.778-.83-5.08-2.16A7.332 7.332 0 010 52.398V35.4c0-3.974 3.195-7.307 7.187-7.307h6.255c1.057 0 2.056.235 2.962.652v-6.321c0-1.972.806-3.766 2.097-5.065a7.154 7.154 0 014.06-2.034 7.484 7.484 0 01-1.12-3.938V4.814c0-1.325.541-2.53 1.41-3.4A4.787 4.787 0 0126.245 0h8.815c.76 0 1.374.62 1.374 1.382v10.004c0 1.44-.406 2.79-1.118 3.938a7.12 7.12 0 014.059 2.034c.26.261.505.548.723.845.219-.297.458-.584.724-.845a7.122 7.122 0 014.054-2.034 7.484 7.484 0 01-1.12-3.938V4.814c0-1.325.542-2.53 1.411-3.4A4.787 4.787 0 0148.56 0h5.392c1.322 0 2.524.542 3.393 1.414a4.808 4.808 0 011.41 3.4v6.572c0 1.44-.41 2.79-1.119 3.938a7.12 7.12 0 014.054 2.034c.266.261.505.548.724.845.218-.297.463-.584.723-.845a7.122 7.122 0 014.06-2.034 7.438 7.438 0 01-1.12-3.938V4.814c0-1.325.537-2.53 1.41-3.4A4.774 4.774 0 0170.877 0h5.391c1.322 0 2.525.542 3.394 1.414a4.804 4.804 0 011.41 3.4v6.572c0 1.44-.411 2.79-1.119 3.938a7.178 7.178 0 016.157 7.099v6.613zm-7.79-19.204l-5.772-1.956L68.83 9.7v1.685a4.72 4.72 0 001.395 3.354 4.703 4.703 0 003.346 1.398 4.715 4.715 0 003.352-1.398 4.746 4.746 0 001.394-3.354V9.832zM68.83 6.64l2.94-1.445a1.38 1.38 0 011.125-.11l5.422 1.842V4.814a2.066 2.066 0 00-2.05-2.055h-5.392c-.557 0-1.072.235-1.441.605a2.045 2.045 0 00-.604 1.45V6.64zM24.194 5.414h9.488V2.759h-7.437a2.066 2.066 0 00-2.05 2.055v.6zm9.488 2.76h-9.488v3.212c0 1.304.536 2.493 1.395 3.354a4.715 4.715 0 003.352 1.398 4.702 4.702 0 003.346-1.398 4.723 4.723 0 001.395-3.354V8.173zm22.316 1.621c-1.656.193-4.154.078-6.282-1.721-.76.417-1.868.845-3.2.793v2.519c0 1.304.53 2.493 1.394 3.354a4.703 4.703 0 006.693 0 4.723 4.723 0 001.395-3.354v-1.59zm-9.483-3.682c.874.068 1.811-.266 2.462-.845a1.368 1.368 0 011.936.135c1.624 1.873 3.851 1.831 5.085 1.622V4.814a2.058 2.058 0 00-2.045-2.055H48.56a2.057 2.057 0 00-2.045 2.055v1.299z" fill="#417F55"/></svg>