<svg width="44" height="44" fill="none" xmlns="http://www.w3.org/2000/svg"><path d="M32.09 44H11.91C5.343 44 0 38.657 0 32.09V11.91C0 5.343 5.343 0 11.91 0h20.18C38.657 0 44 5.343 44 11.91v20.18C44 38.657 38.657 44 32.09 44zM22 9.97C15.366 9.97 9.97 15.365 9.97 22c0 6.634 5.396 12.03 12.03 12.03 6.634 0 12.03-5.396 12.03-12.03 0-6.634-5.396-12.03-12.03-12.03zm12.319 21.224a3.559 3.559 0 00-3.555 3.555 3.56 3.56 0 003.555 3.555 3.56 3.56 0 003.555-3.555 3.559 3.559 0 00-3.555-3.555z" fill="#417F55"/><path d="M22 31.451c-5.211 0-9.451-4.24-9.451-9.451s4.24-9.451 9.451-9.451c5.212 0 9.451 4.24 9.451 9.451 0 5.212-4.24 9.451-9.451 9.451zm12.319 4.273a.977.977 0 11.976-.976.977.977 0 01-.976.976z" fill="#417F55"/></svg>