<svg width="86" height="95" fill="none" xmlns="http://www.w3.org/2000/svg"><path d="M63.565 73.477c-1.032 0-1.87.83-1.87 1.855 0 1.024.838 1.856 1.87 1.856s1.87-.832 1.87-1.856a1.863 1.863 0 00-1.87-1.855z" fill="#417F55"/><path d="M68.168 67.477l-8.886-2.94-3.19-6.332c2.874-2.903 4.87-6.744 5.543-10.75l.397-2.367h3.403c3.092 0 5.608-2.497 5.608-5.566v-11.69C71.043 12.485 58.463 0 43 0 27.497 0 14.956 12.45 14.956 27.832v11.69c0 2.418 1.564 4.48 3.74 5.247v2.174c0 3.07 2.516 5.567 5.608 5.567h1.642a20.116 20.116 0 003.136 4.82c.265.301.541.594.824.879l-3.188 6.328-8.887 2.94C7.5 70.896 0 81.69 0 93.144 0 94.17.837 95 1.87 95h82.26c1.033 0 1.87-.83 1.87-1.856 0-11.453-7.499-22.248-17.832-25.668zm-.864-27.956a1.865 1.865 0 01-1.87 1.856h-2.852c.475-3.654.791-7.541.919-11.37l.01-.32h3.793v9.835zm-46.739 1.856c-1.03 0-1.87-.832-1.87-1.855v-9.834h3.796c.006.193.012.388.02.583v.022c.131 3.724.444 7.51.908 11.084h-2.854zm3.74 7.422a1.864 1.864 0 01-1.87-1.856v-1.855h1.533l.397 2.367c.076.45.17.898.277 1.344h-.338zm-1.867-22.822h-3.671C19.714 13.54 30.17 3.71 43 3.71c12.773 0 23.275 9.829 24.233 22.266h-3.67c-.135-10.248-8.543-18.555-18.89-18.555h-3.346c-10.346 0-18.755 8.307-18.889 18.555zm18.889-14.844h3.346c8.378 0 15.158 6.8 15.153 15.105 0 .584-.005 1.093-.014 1.555v.018l-2.34-.331c-6.352-.9-12.35-3.877-16.89-8.382a1.877 1.877 0 00-1.321-.543c-5.021 0-9.827 2.27-13.005 6.106.784-7.556 7.22-13.528 15.07-13.528zM28.518 48.799c-.936-3.09-2.006-12.182-2.243-18.008l2.516-3.33c2.311-3.057 5.906-4.956 9.731-5.174a33.918 33.918 0 0018.422 8.866l2.752.39a113.352 113.352 0 01-1.099 11.345c-.17 1.15-.306 1.89-.65 3.956-.99 5.894-5.422 11.224-11.272 12.675a15.32 15.32 0 01-7.35 0c-3.652-.906-7.001-3.414-9.163-7.01h3.812a5.615 5.615 0 005.287 3.712H43c3.099 0 5.609-2.491 5.609-5.567 0-3.069-2.516-5.566-5.609-5.566h-3.74a5.608 5.608 0 00-5.29 3.71h-5.452zm10.586 14.476A19.06 19.06 0 0043 63.68a19.02 19.02 0 003.057-.25l-3.303 3.467-3.65-3.623zm1.08 6.32l-5.93 6.223a70.43 70.43 0 01-4.186-9.633l2.227-4.42 7.889 7.83zm13.204-8.458l2.544 5.048a70.397 70.397 0 01-4.187 9.636L45.4 69.522l7.99-8.385zM37.391 50.654c0-1.024.837-1.855 1.87-1.855H43c1.03 0 1.87.832 1.87 1.855A1.863 1.863 0 0143 52.51h-3.74a1.865 1.865 0 01-1.869-1.856zM3.814 91.29c.74-9.192 6.905-17.547 15.2-20.292l7.87-2.603a74.118 74.118 0 005.32 11.456c.005.006.008.013.011.019a74.343 74.343 0 005.118 7.756l2.3 3.664H3.813zM43 89.635l-2.535-4.04a1.836 1.836 0 00-.091-.132 70.736 70.736 0 01-4.213-6.246l6.668-6.997 7.025 6.972a70.606 70.606 0 01-4.227 6.27c-.092.122.038-.069-2.627 4.173zm3.367 1.654l2.3-3.664a74.298 74.298 0 005.153-7.818l.028-.049.003-.006a74.057 74.057 0 005.265-11.358l7.87 2.603c8.295 2.745 14.46 11.1 15.2 20.292H46.367z" fill="#417F55"/><path d="M76.567 83.78a18.582 18.582 0 00-5.292-6.377 1.878 1.878 0 00-2.622.34 1.846 1.846 0 00.342 2.602 14.842 14.842 0 014.227 5.094 1.876 1.876 0 002.508.83 1.85 1.85 0 00.837-2.489z" fill="#417F55"/></svg>