<svg width="90" height="75" fill="none" xmlns="http://www.w3.org/2000/svg"><path d="M45 60.714c-.97 0-1.758.8-1.758 1.786s.788 1.786 1.758 1.786 1.758-.8 1.758-1.786-.788-1.786-1.758-1.786z" fill="#417F55"/><path d="M82.457 2.745C78.13.975 72.507 0 66.62 0c-5.886 0-11.51.975-15.835 2.745C48.228 3.79 46.277 5.069 45 6.503c-1.278-1.434-3.23-2.712-5.785-3.758C34.889.975 29.265 0 23.379 0c-5.886 0-11.51.975-15.836 2.745C2.68 4.735 0 7.565 0 10.715V53.57c0 3.15 2.679 5.98 7.543 7.97 4.023 1.646 9.17 2.603 14.605 2.73v.015C22.148 70.394 31.973 75 45 75c13.028 0 22.852-4.606 22.852-10.714v-.016c5.435-.126 10.582-1.083 14.605-2.729 4.864-1.99 7.543-4.82 7.543-7.97V10.714c0-3.149-2.679-5.979-7.543-7.97zm4.027 40.112c0 1.525-2.046 3.309-5.34 4.657-3.567 1.459-8.354 2.341-13.292 2.468v-7.14c5.435-.126 10.581-1.083 14.605-2.73 1.579-.646 2.926-1.38 4.028-2.186v4.931zM43.242 21.43c0 1.524-2.046 3.308-5.34 4.656-3.862 1.58-9.155 2.486-14.523 2.486s-10.66-.906-14.522-2.486c-3.295-1.348-5.341-3.132-5.341-4.656v-4.931c1.101.805 2.448 1.54 4.027 2.186 4.326 1.77 9.95 2.745 15.836 2.745 5.886 0 11.51-.975 15.835-2.745 1.58-.646 2.927-1.381 4.028-2.187v4.932zM7.543 29.4c4.326 1.769 9.95 2.744 15.836 2.744 5.886 0 11.51-.975 15.835-2.745 1.58-.646 2.927-1.38 4.028-2.186v4.963c-4.547.156-8.908.914-12.436 2.176-3.538 1.266-6.084 2.954-7.468 4.934-5.354-.004-10.63-.91-14.481-2.485-3.295-1.348-5.341-3.133-5.341-4.657v-4.931c1.101.805 2.448 1.54 4.027 2.186zm-4.027 8.527c1.101.805 2.448 1.54 4.027 2.186 4.024 1.647 9.17 2.604 14.606 2.73v7.14c-4.94-.127-9.726-1.01-13.292-2.468-3.295-1.348-5.341-3.132-5.341-4.657v-4.93zM25.85 41.98c1.303-3.08 8.822-6.266 19.15-6.266s17.847 3.186 19.149 6.262c.126.3.187.589.187.881 0 1.57-1.905 3.314-5.097 4.665C55.464 49.12 50.407 50 45 50s-10.464-.88-14.24-2.478c-3.19-1.35-5.096-3.095-5.096-4.665 0-.292.061-.58.186-.877zm60.634-9.837c0 1.524-2.046 3.309-5.34 4.657-3.852 1.576-9.128 2.48-14.481 2.485-1.384-1.979-3.93-3.668-7.47-4.934-3.527-1.262-7.888-2.02-12.435-2.176v-4.963c1.101.805 2.448 1.54 4.027 2.186 4.326 1.77 9.95 2.745 15.836 2.745 5.886 0 11.51-.975 15.836-2.745 1.579-.646 2.926-1.38 4.027-2.186v4.93zm0-10.714c0 1.524-2.046 3.308-5.34 4.656-3.862 1.58-9.155 2.486-14.523 2.486s-10.66-.906-14.522-2.486c-3.295-1.348-5.341-3.132-5.341-4.656v-4.931c1.101.805 2.448 1.54 4.027 2.186 4.326 1.77 9.95 2.745 15.836 2.745 5.886 0 11.51-.975 15.836-2.745 1.579-.646 2.926-1.381 4.027-2.187v4.932zM52.1 6.058c3.86-1.58 9.153-2.488 14.52-2.488s10.66.906 14.522 2.486c3.295 1.349 5.341 3.133 5.341 4.657 0 1.525-2.046 3.309-5.34 4.657-3.862 1.58-9.155 2.486-14.523 2.486s-10.66-.906-14.522-2.486c-3.295-1.348-5.341-3.132-5.341-4.657 0-1.524 2.046-3.308 5.34-4.657zm-43.242 0c3.861-1.58 9.154-2.487 14.522-2.487s10.66.906 14.522 2.486c3.295 1.349 5.341 3.133 5.341 4.657 0 1.525-2.046 3.309-5.34 4.657-3.862 1.58-9.155 2.486-14.523 2.486s-10.66-.906-14.522-2.486c-3.295-1.348-5.341-3.132-5.341-4.657 0-1.524 2.046-3.308 5.34-4.657zm0 52.17c-3.295-1.348-5.341-3.132-5.341-4.657v-4.93c1.101.805 2.448 1.54 4.027 2.186 4.023 1.646 9.17 2.603 14.605 2.73v7.14c-4.939-.127-9.726-1.01-13.291-2.469zM59.24 68.951c-3.775 1.598-8.832 2.478-14.239 2.478s-10.464-.88-14.24-2.478c-3.19-1.351-5.096-3.095-5.096-4.665v-4.827c.398.292.838.583 1.326.87 2.73 1.605 6.444 2.792 10.741 3.432.087.013.172.02.258.02.857 0 1.608-.64 1.736-1.527.142-.976-.523-1.883-1.483-2.026-8.17-1.218-12.578-4.339-12.578-6.657V48.73c3.978 2.956 11.001 4.84 19.335 4.84 8.334 0 15.357-1.885 19.336-4.842v4.842c0 2.318-4.408 5.439-12.578 6.657-.96.143-1.625 1.05-1.483 2.026a1.767 1.767 0 001.994 1.507c4.297-.64 8.011-1.827 10.74-3.432.489-.287.929-.578 1.327-.87v4.827c0 1.57-1.905 3.314-5.097 4.665zm21.904-10.723c-3.566 1.46-8.353 2.342-13.291 2.469v-7.141c5.435-.126 10.582-1.083 14.605-2.73 1.579-.645 2.926-1.38 4.027-2.186v4.931c0 1.525-2.046 3.31-5.34 4.657z" fill="#417F55"/></svg>