<svg width="59" height="59" fill="none" xmlns="http://www.w3.org/2000/svg"><circle cx="29.5" cy="29.5" r="29" stroke="#417F55"/><path d="M24.165 16.973l11.528 12.034L24.165 41.04a.583.583 0 00.014.8c.21.21.542.21.752 0l11.91-12.435a.583.583 0 000-.8L24.93 16.173a.526.526 0 00-.766-.013.583.583 0 000 .813z" fill="#20803F"/><path d="M37 29.007a.58.58 0 01-.158.4l-11.91 12.434a.525.525 0 01-.766-.014.583.583 0 010-.785l11.527-12.035-11.528-12.034a.583.583 0 01-.013-.8.525.525 0 01.779 0l11.91 12.435a.58.58 0 01.159.399z" fill="#20803F"/></svg>