<svg width="59" height="59" fill="none" xmlns="http://www.w3.org/2000/svg"><circle r="29" transform="matrix(-1 0 0 1 29.5 29.5)" stroke="#417F55"/><path d="M34.835 16.973L23.307 29.007 34.835 41.04a.583.583 0 01-.014.8.525.525 0 01-.752 0L22.16 29.405a.583.583 0 010-.8l11.91-12.434a.526.526 0 01.766-.013.583.583 0 010 .813z" fill="#20803F"/><path d="M22 29.007c0 .15.057.294.158.4l11.91 12.434a.525.525 0 00.766-.014.583.583 0 000-.785L23.307 29.007l11.528-12.034a.583.583 0 00.013-.8.525.525 0 00-.779 0L22.16 28.609a.578.578 0 00-.159.399z" fill="#20803F"/></svg>