<svg width="80" height="89" fill="none" xmlns="http://www.w3.org/2000/svg"><path d="M23.704 43.017V75.65a1.484 1.484 0 001.481 1.483h29.63a1.48 1.48 0 001.481-1.483V43.017a1.484 1.484 0 00-1.481-1.484h-29.63a1.48 1.48 0 00-1.481 1.484zm2.963 1.483h26.666v29.667H26.667V44.5z" fill="#417F55"/><path d="M29.63 23.73a1.483 1.483 0 00-1.484 1.487v4.45h-2.96a7.411 7.411 0 00-5.236 2.174 7.43 7.43 0 00-2.172 5.242v44.5a7.43 7.43 0 002.172 5.242A7.411 7.411 0 0025.185 89h29.63a7.411 7.411 0 005.235-2.175 7.43 7.43 0 002.172-5.242v-44.5a7.43 7.43 0 00-2.172-5.242 7.411 7.411 0 00-5.235-2.174h-2.96v-4.45a1.487 1.487 0 00-1.485-1.486h-5.923v-8.898l8.884.003v4.447a1.487 1.487 0 001.484 1.486h5.926a1.484 1.484 0 001.484-1.486V7.417A1.487 1.487 0 0060.74 5.93H50.22a7.431 7.431 0 00-2.576-4.257A7.414 7.414 0 0042.963 0h-5.926a7.411 7.411 0 00-5.235 2.175 7.43 7.43 0 00-2.172 5.242v5.933a1.484 1.484 0 001.481 1.483h4.442v8.898H29.63zM50.37 8.904h8.887v8.894h-2.958V13.35a1.487 1.487 0 00-1.484-1.486H50.37V8.903zm4.445 23.73a4.447 4.447 0 013.141 1.305 4.458 4.458 0 011.303 3.145v44.5a4.458 4.458 0 01-1.303 3.145 4.446 4.446 0 01-3.141 1.305h-29.63a4.446 4.446 0 01-3.141-1.305 4.458 4.458 0 01-1.303-3.145v-44.5c.001-1.18.47-2.31 1.303-3.145a4.447 4.447 0 013.141-1.305h29.63zM32.593 11.867v-4.45a4.456 4.456 0 011.303-3.145 4.447 4.447 0 013.141-1.305h5.926a4.447 4.447 0 013.141 1.305 4.458 4.458 0 011.303 3.145v4.45H32.593zm8.886 2.966v8.898H38.52v-8.898h2.958zm7.407 11.87v2.964H31.114v-2.964h17.772zM5.926 78.617a4.454 4.454 0 002.744 4.11 4.44 4.44 0 004.843-.964 4.453 4.453 0 00-3.143-7.596 4.446 4.446 0 00-3.14 1.305 4.458 4.458 0 00-1.304 3.145zm4.444-1.484a1.48 1.48 0 011.453 1.773 1.484 1.484 0 01-2.02 1.081 1.482 1.482 0 01-.48-2.419 1.482 1.482 0 011.047-.435zm-4.444-26.7A5.92 5.92 0 00.45 54.096a5.94 5.94 0 001.285 6.466 5.923 5.923 0 0010.116-4.195 5.944 5.944 0 00-1.738-4.194 5.929 5.929 0 00-4.188-1.74zm0 8.9a2.96 2.96 0 01-2.737-1.831 2.97 2.97 0 012.159-4.045 2.96 2.96 0 013.042 1.261 2.969 2.969 0 01-2.464 4.615zm59.259-1.483a4.455 4.455 0 002.744 4.111 4.44 4.44 0 004.843-.964A4.451 4.451 0 0069.63 53.4a4.447 4.447 0 00-3.141 1.305 4.458 4.458 0 00-1.304 3.145zm4.445-1.483a1.48 1.48 0 011.453 1.772 1.484 1.484 0 01-2.02 1.081 1.482 1.482 0 01-.48-2.418 1.482 1.482 0 011.047-.435zm4.444-14.834a5.921 5.921 0 005.475-3.662 5.94 5.94 0 00-1.285-6.467A5.923 5.923 0 0068.148 35.6a5.944 5.944 0 001.738 4.194 5.93 5.93 0 004.188 1.74zm0-8.9a2.96 2.96 0 012.737 1.832 2.97 2.97 0 01-2.159 4.045 2.96 2.96 0 01-3.041-1.262 2.97 2.97 0 012.463-4.615z" fill="#417F55"/><path d="M41.004 49.343a1.48 1.48 0 00-2.008 0 28.537 28.537 0 00-3.144 3.55c-2.163 2.892-3.26 5.558-3.26 7.924 0 2.68.726 4.936 2.098 6.522A7.125 7.125 0 0040 69.717a7.117 7.117 0 005.31-2.378c1.372-1.586 2.097-3.841 2.097-6.522 0-2.366-1.096-5.032-3.259-7.924-.948-1.269-2-2.456-3.144-3.55zM40 66.75c-2.74 0-4.444-2.274-4.444-5.933 0-2.866 2.658-6.352 4.445-8.281 1.788 1.925 4.443 5.405 4.443 8.28 0 3.66-1.703 5.934-4.444 5.934z" fill="#417F55"/></svg>