<svg width="102" height="102" fill="none" xmlns="http://www.w3.org/2000/svg"><path d="M42.5 102C19.065 102 0 82.934 0 59.5c0-23.435 19.065-42.501 42.5-42.501 23.434 0 42.5 19.066 42.5 42.5C85 82.934 65.934 102 42.5 102zm0-78.626c-19.92 0-36.125 16.205-36.125 36.125S22.58 95.625 42.5 95.625s36.125-16.206 36.125-36.126c0-19.92-16.205-36.125-36.125-36.125z" fill="#417F55"/><path d="M42.5 87.125c-15.232 0-27.625-12.393-27.625-27.626 0-15.232 12.393-27.625 27.625-27.625s27.625 12.393 27.625 27.625c0 15.233-12.393 27.626-27.625 27.626zm0-48.876c-11.717 0-21.25 9.533-21.25 21.25 0 11.718 9.533 21.25 21.25 21.25s21.25-9.532 21.25-21.25c0-11.717-9.533-21.25-21.25-21.25z" fill="#417F55"/><path d="M42.5 72.25c-7.03 0-12.75-5.721-12.75-12.75 0-7.03 5.72-12.75 12.75-12.75s12.75 5.72 12.75 12.75c0 7.029-5.72 12.75-12.75 12.75zm0-19.126a6.383 6.383 0 00-6.375 6.375 6.383 6.383 0 006.375 6.375 6.383 6.383 0 006.375-6.375 6.383 6.383 0 00-6.375-6.375z" fill="#417F55"/><path d="M42.5 62.687c-.816 0-1.632-.31-2.253-.935a3.188 3.188 0 010-4.51l31.875-31.875a3.188 3.188 0 114.51 4.51L44.757 61.751a3.18 3.18 0 01-2.257.935z" fill="#417F55"/><path d="M86.062 29.749H75.437a3.189 3.189 0 01-3.187-3.188V15.936c0-.846.335-1.657.935-2.252L85.935.934A3.193 3.193 0 0189.407.24a3.19 3.19 0 011.968 2.945v7.438h7.437a3.19 3.19 0 012.945 1.967 3.183 3.183 0 01-.692 3.473l-12.75 12.75c-.595.6-1.407.935-2.253.935zm-7.437-6.375h6.115l6.376-6.375h-2.929A3.189 3.189 0 0185 13.81v-2.928l-6.375 6.375v6.116z" fill="#417F55"/></svg>