<svg width="44" height="44" fill="none" xmlns="http://www.w3.org/2000/svg"><path d="M32.965 0H11C4.959 0 0 4.959 0 11.035V33c0 6.041 4.959 11 11 11h21.965C39.041 44 44 39.041 44 32.965v-21.93C44 4.959 39.041 0 32.965 0zM20.813 9.044c.07-1.082 1.082-.698 1.606-.768 6.565.21 12.222 6.111 12.152 12.467 0 .628.21 1.536-.733 1.536-.908 0-.663-.942-.768-1.571-.873-6.74-4.016-9.917-10.86-10.965-.56-.07-1.432.035-1.397-.699zm9.812 11.978c-1.047.14-.838-.768-.942-1.362-.699-4.12-2.166-5.622-6.39-6.53-.63-.14-1.607-.035-1.433-.978.14-.908 1.013-.593 1.677-.523 4.225.489 7.682 4.085 7.647 8.031-.07.42.21 1.223-.559 1.362zm-2.619-2.165c0 .559-.07 1.083-.698 1.152-.454.07-.733-.314-.803-.768-.175-1.676-1.083-2.689-2.829-2.968-.524-.07-1.012-.244-.768-.943.174-.454.594-.524 1.048-.524 1.885-.035 4.05 2.165 4.05 4.051zm6.635 12.886c-.733 1.99-3.212 4.016-5.343 3.98-.314-.069-.907-.174-1.431-.383-9.36-3.946-16.169-10.442-20.01-19.73-1.292-3.108.07-5.762 3.318-6.81a2.504 2.504 0 011.746 0c1.397.489 4.923 5.273 4.993 6.67.07 1.082-.698 1.676-1.431 2.165-1.432.943-1.432 2.13-.804 3.492 1.362 3.003 3.702 5.098 6.74 6.425 1.083.49 2.165.454 2.898-.663 1.327-1.99 2.969-1.886 4.75-.664.908.629 1.816 1.223 2.654 1.886 1.152.943 2.619 1.711 1.92 3.632z" fill="#417F55"/></svg>