<svg width="42" height="42" fill="none" xmlns="http://www.w3.org/2000/svg"><path d="M21.005 0h-.01C9.415 0 0 9.418 0 21a20.84 20.84 0 003.998 12.309L1.38 41.11l8.072-2.58c3.32 2.2 7.281 3.47 11.552 3.47C32.585 42 42 32.579 42 21S32.584 0 21.005 0zm12.22 29.655c-.507 1.43-2.518 2.617-4.122 2.963-1.097.234-2.53.42-7.355-1.58-6.171-2.557-10.146-8.828-10.455-9.235-.297-.407-2.494-3.32-2.494-6.334 0-3.013 1.53-4.48 2.147-5.11.507-.518 1.344-.754 2.148-.754.26 0 .493.013.703.024.617.026.927.063 1.333 1.036.507 1.221 1.74 4.235 1.888 4.544.15.31.3.73.09 1.137-.198.42-.371.606-.68.963-.31.357-.605.63-.914 1.014-.284.333-.604.69-.247 1.307.357.604 1.59 2.617 3.407 4.234 2.344 2.087 4.245 2.753 4.925 3.037.506.21 1.11.16 1.48-.234.47-.506 1.05-1.346 1.64-2.173.42-.593.951-.667 1.508-.457.567.197 3.567 1.68 4.184 1.987.617.31 1.024.457 1.173.717.147.26.147 1.48-.36 2.914z" fill="#418055"/></svg>