<svg width="89" height="89" fill="none" xmlns="http://www.w3.org/2000/svg"><path d="M66.404 69.66l-13.516-2.027-.582-2.904a24.494 24.494 0 0014.055-12.322 15.788 15.788 0 0011.155-15.084c0-2.34-.52-4.591-1.477-6.648.95-1.954 1.477-4.091 1.477-6.272 0-6.952-4.97-12.763-11.543-14.075C65.392 4.538 60.491 0 54.548 0H34.452c-5.943 0-10.844 4.538-11.425 10.328-6.574 1.312-11.543 7.123-11.543 14.075 0 2.18.527 4.318 1.477 6.272a15.705 15.705 0 00-1.477 6.648c0 3.311 1.016 6.46 2.927 9.14.073.773.303 1.514.675 2.194-1.311 1.052-2.167 2.649-2.167 4.456a5.748 5.748 0 005.742 5.742c1.044 0 2.01-.3 2.854-.79a5.71 5.71 0 002.888.79c.843 0 1.637-.192 2.357-.52 2.772 2.941 6.171 5.146 9.93 6.415l-.578 2.883-13.516 2.027C13.663 71 7.177 78.53 7.177 87.564V89h74.646v-1.436c0-9.034-6.486-16.563-15.419-17.904zm-10.961 1.26l-7.314 8.533-1.748-2.068 5.875-6.943 3.187.478zM14.355 24.403c0-6.332 5.152-11.484 11.484-11.484h8.54v-2.87h-8.411c.686-4.067 4.223-7.178 8.484-7.178h20.096c4.24 0 7.765 3.082 8.475 7.177H54.62v2.871h8.541c6.332 0 11.484 5.152 11.484 11.484 0 1.097-.168 2.18-.474 3.224-.43-.55-.884-1.083-1.392-1.58l-2.01 2.05a12.823 12.823 0 013.876 9.226c0 4.83-2.684 9.16-6.794 11.374a24.318 24.318 0 001.052-7.068v-8.732a7.066 7.066 0 00-7.058-7.058 78.118 78.118 0 01-32.541-7.048l-.688-.314-.646.39c-4.856 2.914-7.873 8.243-7.873 13.906l.001 7.42h-.001c-1.905 0-3.583.942-4.628 2.375a12.838 12.838 0 01-1.114-5.245c0-3.5 1.377-6.777 3.876-9.226l-2.01-2.05c-.507.497-.962 1.03-1.393 1.58a11.47 11.47 0 01-.473-3.224zm1.435 28.71a2.874 2.874 0 012.871-2.871 2.874 2.874 0 012.871 2.87 2.874 2.874 0 01-2.87 2.872 2.874 2.874 0 01-2.872-2.871zm7.874 2.762c.456-.823.74-1.756.74-2.762a5.748 5.748 0 00-5.743-5.742c-.331 0-.653.043-.97.098a2.795 2.795 0 01-.465-1.534 2.874 2.874 0 012.87-2.87c.984 0 1.886.502 2.42 1.342l.732 1.158 1.19-.677a2.813 2.813 0 011.4-.388 2.874 2.874 0 012.872 2.871c0 .983-.503 1.885-1.343 2.419l-1.158.732.678 1.19c.257.452.387.923.387 1.4a2.874 2.874 0 01-2.87 2.872c-.253 0-.5-.045-.74-.11zm5.331.65a5.687 5.687 0 001.15-3.412c0-.571-.087-1.134-.261-1.678a5.694 5.694 0 001.697-4.064 5.748 5.748 0 00-5.742-5.742c-.572 0-1.134.088-1.678.261a5.683 5.683 0 00-1.192-.895l-.001-8.221c0-4.416 2.228-8.583 5.86-11.05 10.458 4.636 21.563 6.986 33.017 6.986a4.193 4.193 0 014.187 4.187v8.732c0 11.873-9.66 21.532-21.532 21.532-5.884 0-11.45-2.419-15.505-6.636zM44.5 66.032c1.725 0 3.408-.185 5.033-.528l.6 3.002-5.633 6.657-5.634-6.657.601-3.008a24.48 24.48 0 005.033.534zm-7.756 4.41L50.018 86.13h-3.424L33.557 70.92l3.187-.478zm-13.722 2.059l7.186-1.079L42.816 86.13H21.532v-8.613h-2.87v8.613h-8.548c.638-6.952 5.87-12.573 12.908-13.629zM70.34 86.129v-8.613h-2.871v8.613h-13.69l-3.773-4.459 8.786-10.248 7.186 1.079c7.038 1.055 12.27 6.676 12.908 13.628h-8.547z" fill="#417F55"/><path d="M55.984 38.758c3.957 0 7.177-2.575 7.177-5.742h-2.87c0 1.556-1.973 2.871-4.307 2.871-2.334 0-4.307-1.315-4.307-2.87h-2.87c0 3.166 3.22 5.741 7.177 5.741zm-22.968-2.871c-2.334 0-4.306-1.315-4.306-2.87h-2.871c0 3.166 3.22 5.741 7.177 5.741 3.958 0 7.178-2.575 7.178-5.742h-2.871c0 1.556-1.973 2.871-4.307 2.871zM8.613 38.758a4.312 4.312 0 00-4.307-4.306A4.312 4.312 0 000 38.758a4.312 4.312 0 004.306 4.306 4.312 4.312 0 004.307-4.306zm-5.742 0a1.436 1.436 0 112.872.001 1.436 1.436 0 01-2.872 0zm7.177 15.79a4.312 4.312 0 00-4.306-4.306 4.312 4.312 0 00-4.307 4.306 4.312 4.312 0 004.307 4.307 4.312 4.312 0 004.306-4.307zm-4.306 1.436a1.436 1.436 0 11.001-2.872 1.436 1.436 0 01-.001 2.872zm63.161 7.177a4.312 4.312 0 004.307 4.307 4.312 4.312 0 004.306-4.307 4.312 4.312 0 00-4.306-4.306 4.312 4.312 0 00-4.307 4.306zm4.307-1.435a1.436 1.436 0 11-.001 2.872 1.436 1.436 0 010-2.872zm11.484-25.839A4.312 4.312 0 0089 31.581a4.312 4.312 0 00-4.306-4.307 4.312 4.312 0 00-4.307 4.307 4.312 4.312 0 004.306 4.306zm0-5.742a1.436 1.436 0 11-.001 2.872 1.436 1.436 0 010-2.872zM83.258 44.5h-2.87a5.748 5.748 0 01-5.743 5.742v2.87a5.748 5.748 0 015.742 5.743h2.871A5.748 5.748 0 0189 53.113v-2.871a5.748 5.748 0 01-5.742-5.742zm-1.435 9.603a8.675 8.675 0 00-2.426-2.426 8.676 8.676 0 002.426-2.425 8.677 8.677 0 002.426 2.425 8.676 8.676 0 00-2.426 2.426z" fill="#417F55"/></svg>