<?xml version="1.0" encoding="utf-8"?><svg xmlns="http://www.w3.org/2000/svg" xmlns:xlink="http://www.w3.org/1999/xlink"><symbol viewBox="0 0 13 24" id="f" xmlns="http://www.w3.org/2000/svg"><path d="M10.627 3.985H13V.169C12.59.117 11.182 0 9.542 0 6.12 0 3.776 1.987 3.776 5.639V9H0v4.266h3.776V24h4.63V13.267h3.623l.576-4.266h-4.2V6.062c.001-1.233.36-2.077 2.222-2.077z"/></symbol><symbol viewBox="0 0 25 25" id="inst" xmlns="http://www.w3.org/2000/svg"><path d="M18.233 0H6.767A6.775 6.775 0 000 6.767v11.466A6.775 6.775 0 006.767 25h11.466A6.775 6.775 0 0025 18.233V6.767A6.775 6.775 0 0018.233 0zM12.5 19.336A6.843 6.843 0 015.664 12.5 6.843 6.843 0 0112.5 5.664a6.843 6.843 0 016.836 6.836 6.843 6.843 0 01-6.836 6.836zm7-12.06a2.022 2.022 0 01-2.02-2.02c0-1.113.905-2.02 2.02-2.02 1.113 0 2.02.907 2.02 2.02 0 1.114-.907 2.02-2.02 2.02z"/><path d="M12.5 7.13a5.376 5.376 0 00-5.37 5.37 5.376 5.376 0 005.37 5.37 5.376 5.376 0 005.37-5.37 5.376 5.376 0 00-5.37-5.37zm7-2.428a.555.555 0 100 1.11.555.555 0 000-1.11z"/></symbol><symbol viewBox="0 0 24 18" id="mail" xmlns="http://www.w3.org/2000/svg"><path d="M23.143 0H.857L12 9.637 23.269.027A.744.744 0 0023.143 0z"/><path d="M12.54 11.498a.826.826 0 01-1.085 0L0 1.59V17.1c0 .497.384.9.857.9h22.286c.473 0 .857-.403.857-.9V1.723l-11.46 9.775z"/></symbol><symbol viewBox="0 0 19 25" id="map" xmlns="http://www.w3.org/2000/svg"><path d="M9.5 0C4.262 0 0 4.235 0 9.443c0 7.399 8.607 15.038 8.973 15.36a.797.797 0 001.054 0C10.393 24.481 19 16.842 19 9.443 19 4.235 14.738 0 9.5 0zm0 14.583c-2.91 0-5.278-2.336-5.278-5.208 0-2.872 2.368-5.208 5.278-5.208 2.91 0 5.278 2.336 5.278 5.208 0 2.872-2.368 5.208-5.278 5.208z"/></symbol><symbol viewBox="0 0 22 22" id="phone" xmlns="http://www.w3.org/2000/svg"><path d="M9.11 12.89c-2.1-2.1-2.573-4.2-2.68-5.04a.754.754 0 01.216-.632l1.7-1.699a.758.758 0 00.107-.938L5.747.379a.759.759 0 00-.983-.276L.421 2.148a.754.754 0 00-.417.754c.228 2.162 1.17 7.477 6.393 12.7 5.223 5.224 10.536 6.166 12.7 6.394a.754.754 0 00.753-.417l2.046-4.344a.759.759 0 00-.275-.981l-4.201-2.705a.758.758 0 00-.939.106l-1.699 1.7a.754.754 0 01-.63.216c-.842-.107-2.942-.58-5.041-2.68z"/><path d="M17.448 11.759A.759.759 0 0116.69 11 5.696 5.696 0 0011 5.31a.759.759 0 010-1.517A7.215 7.215 0 0118.208 11c0 .42-.34.759-.759.759z"/><path d="M21.241 11.759a.759.759 0 01-.758-.759A9.493 9.493 0 0011 1.517.759.759 0 0111 0c6.073.007 10.993 4.928 11 11a.758.758 0 01-.759.759z"/></symbol><symbol viewBox="0 0 31 31" id="telegram" xmlns="http://www.w3.org/2000/svg"><path d="M15.5 31C24.063 31 31 24.062 31 15.5 31 6.938 24.062 0 15.5 0 6.938 0 0 6.938 0 15.5 0 24.063 6.938 31 15.5 31zM7.093 15.164l14.944-5.762c.694-.25 1.3.17 1.075 1.218l.001-.001-2.544 11.988c-.19.85-.694 1.056-1.4.656l-3.876-2.856-1.869 1.8c-.206.207-.38.382-.781.382l.275-3.944 7.182-6.488c.312-.275-.07-.43-.482-.156l-8.875 5.588-3.826-1.194c-.83-.263-.849-.83.176-1.23z"/></symbol><symbol viewBox="0 0 31 31" id="vhats" xmlns="http://www.w3.org/2000/svg"><path d="M23.225 0H7.75C3.494 0 0 3.494 0 7.775V23.25C0 27.506 3.494 31 7.75 31h15.475C27.506 31 31 27.506 31 23.225V7.775C31 3.494 27.506 0 23.225 0zm-8.562 6.372c.05-.762.763-.492 1.132-.541 4.626.148 8.611 4.305 8.562 8.783 0 .443.148 1.083-.517 1.083-.64 0-.467-.664-.54-1.107-.616-4.749-2.83-6.988-7.652-7.726-.394-.049-1.01.025-.984-.492zm6.914 8.44c-.738.098-.59-.542-.664-.96-.492-2.904-1.526-3.962-4.503-4.601-.443-.099-1.131-.025-1.008-.69.098-.639.713-.417 1.18-.368 2.977.344 5.413 2.878 5.389 5.659-.05.295.147.86-.394.96zm-1.845-1.526c0 .393-.05.762-.492.812-.32.049-.517-.222-.566-.542-.123-1.18-.763-1.894-1.993-2.09-.37-.05-.714-.173-.541-.665.123-.32.418-.37.738-.37 1.328-.024 2.854 1.526 2.854 2.855zm4.674 9.078c-.516 1.403-2.263 2.83-3.764 2.805-.221-.05-.64-.123-1.009-.27-6.593-2.78-11.39-7.357-14.097-13.901-.91-2.19.049-4.06 2.337-4.798a1.764 1.764 0 011.23 0c.984.344 3.47 3.715 3.518 4.7.05.762-.492 1.18-1.008 1.525-1.009.664-1.009 1.5-.566 2.46.96 2.116 2.608 3.592 4.748 4.527.763.344 1.526.32 2.042-.468.935-1.402 2.092-1.328 3.346-.467.64.443 1.28.861 1.87 1.329.812.664 1.845 1.205 1.353 2.558z"/></symbol><symbol viewBox="0 0 29 30" id="viber" xmlns="http://www.w3.org/2000/svg"><path d="M14.504 0h-.008C6.501 0 0 6.728 0 15c0 3.281 1.022 6.323 2.76 8.792L.953 29.364l5.574-1.843A14.036 14.036 0 0014.504 30C22.499 30 29 23.27 29 15S22.499 0 14.504 0zm8.437 21.182c-.35 1.022-1.738 1.87-2.846 2.117-.757.167-1.747.3-5.078-1.129-4.262-1.826-7.006-6.306-7.22-6.596-.204-.29-1.721-2.372-1.721-4.525 0-2.152 1.056-3.2 1.482-3.65.35-.37.928-.538 1.483-.538.18 0 .34.009.486.017.425.018.64.045.92.74.35.872 1.202 3.024 1.303 3.246.104.221.207.521.062.812-.136.3-.255.433-.47.688-.213.255-.416.45-.63.723-.196.239-.417.494-.17.934.246.431 1.098 1.87 2.352 3.025 1.619 1.49 2.93 1.966 3.4 2.169.35.15.767.114 1.023-.167.324-.362.725-.962 1.132-1.552.29-.424.657-.477 1.04-.327.392.141 2.464 1.2 2.89 1.42.426.221.707.326.81.512.102.185.102 1.057-.248 2.08z"/></symbol><symbol viewBox="0 0 39 22" id="vk" xmlns="http://www.w3.org/2000/svg"><path d="M38.652 19.623c-.104-.174-.753-1.567-3.873-4.43-3.267-2.998-2.828-2.511 1.107-7.695 2.396-3.157 3.354-5.085 3.054-5.91-.285-.785-2.048-.578-2.048-.578l-5.86.034s-.434-.058-.758.132c-.314.188-.517.622-.517.622s-.929 2.444-2.167 4.521c-2.61 4.384-3.656 4.615-4.083 4.343-.992-.634-.743-2.55-.743-3.909 0-4.249.65-6.02-1.27-6.478-.64-.152-1.107-.253-2.738-.27-2.091-.022-3.864.007-4.866.492-.668.323-1.182 1.043-.867 1.084.387.05 1.265.234 1.73.86.602.808.58 2.625.58 2.625s.347 5-.806 5.623c-.793.426-1.877-.444-4.205-4.423-1.192-2.036-2.094-4.29-2.094-4.29s-.173-.419-.483-.643c-.375-.272-.902-.36-.902-.36l-5.572.035s-.837.024-1.144.383c-.273.32-.022.98-.022.98S4.47 12.463 9.408 17.55c4.531 4.663 9.675 4.357 9.675 4.357h2.33s.705-.077 1.063-.46c.332-.352.32-1.012.32-1.012s-.047-3.092 1.406-3.548c1.43-.448 3.269 2.989 5.216 4.312 1.473 1 2.592.78 2.592.78l5.209-.072s2.725-.166 1.433-2.284z"/></symbol><symbol viewBox="0 0 30 21" id="yt" xmlns="http://www.w3.org/2000/svg"><path d="M29.382 3.286A3.758 3.758 0 0026.738.642C24.39 0 15 0 15 0S5.61 0 3.262.618A3.834 3.834 0 00.618 3.286C0 5.633 0 10.5 0 10.5s0 4.892.618 7.214a3.759 3.759 0 002.644 2.644C5.634 21 15 21 15 21s9.39 0 11.738-.618a3.758 3.758 0 002.644-2.643C30 15.392 30 10.525 30 10.525s.025-4.892-.618-7.239zM12.01 14.996V6.004l7.809 4.496-7.81 4.496z"/></symbol></svg>