<svg width="19" height="25" viewBox="0 0 19 25" fill="none" xmlns="http://www.w3.org/2000/svg">
<path d="M9.5 0C4.26233 0 0 4.23542 0 9.44271C0 16.8417 8.607 24.4812 8.97328 24.8021C9.12422 24.9344 9.31211 25 9.5 25C9.68789 25 9.87578 24.9344 10.0267 24.8031C10.393 24.4813 19 16.8417 19 9.44271C19 4.23542 14.7377 0 9.5 0ZM9.5 14.5833C6.58983 14.5833 4.22222 12.2469 4.22222 9.375C4.22222 6.50312 6.58983 4.16667 9.5 4.16667C12.4102 4.16667 14.7778 6.50312 14.7778 9.375C14.7778 12.2469 12.4102 14.5833 9.5 14.5833Z" fill="white"/>
</svg>
