<svg width="31" height="31" viewBox="0 0 31 31" fill="none" xmlns="http://www.w3.org/2000/svg">
<path d="M23.2254 0H7.75C3.49365 0 0 3.49365 0 7.7746V23.25C0 27.5063 3.49365 31 7.75 31H23.2254C27.5063 31 31 27.5063 31 23.2254V7.7746C31 3.49365 27.5063 0 23.2254 0ZM14.6635 6.37222C14.7127 5.60952 15.4262 5.88016 15.7952 5.83095C20.4206 5.97857 24.4063 10.1365 24.3571 14.6143C24.3571 15.0571 24.5048 15.6968 23.8405 15.6968C23.2008 15.6968 23.373 15.0325 23.2992 14.5897C22.6841 9.84127 20.4698 7.60238 15.6476 6.86429C15.254 6.81508 14.6389 6.88889 14.6635 6.37222ZM21.577 14.8111C20.8389 14.9095 20.9865 14.2698 20.9127 13.8516C20.4206 10.9484 19.3873 9.89048 16.4103 9.25079C15.9675 9.15238 15.2786 9.22619 15.4016 8.5619C15.5 7.92222 16.1151 8.14365 16.5825 8.19286C19.5595 8.5373 21.9952 11.0714 21.9706 13.8516C21.9214 14.1468 22.1183 14.7127 21.577 14.8111ZM19.7317 13.2857C19.7317 13.6794 19.6825 14.0484 19.2397 14.0976C18.9198 14.1468 18.723 13.8762 18.6738 13.5563C18.5508 12.3754 17.9111 11.6619 16.681 11.4651C16.3119 11.4159 15.9675 11.2929 16.1397 10.8008C16.2627 10.481 16.5579 10.4317 16.8778 10.4317C18.2063 10.4071 19.7317 11.9571 19.7317 13.2857ZM24.4063 22.3643C23.8897 23.7667 22.1429 25.1937 20.6421 25.169C20.4206 25.1198 20.0024 25.046 19.6333 24.8984C13.0397 22.1183 8.24206 17.5421 5.53571 10.9976C4.6254 8.80794 5.58492 6.9381 7.87302 6.2C8.29127 6.05238 8.68492 6.05238 9.10317 6.2C10.0873 6.54444 12.5722 9.91508 12.6214 10.8992C12.6706 11.6619 12.1294 12.0802 11.6127 12.4246C10.604 13.0889 10.604 13.9254 11.0468 14.8849C12.0063 17.0008 13.6548 18.477 15.7952 19.4119C16.5579 19.7563 17.3206 19.7317 17.8373 18.9444C18.7722 17.5421 19.9286 17.6159 21.1833 18.477C21.823 18.9198 22.4627 19.3381 23.0532 19.8056C23.8651 20.4698 24.8984 21.0111 24.4063 22.3643Z" fill="white"/>
</svg>
