<svg width="29" height="30" viewBox="0 0 29 30" fill="none" xmlns="http://www.w3.org/2000/svg">
<path d="M14.5036 0H14.4964C6.50144 0 0 6.7275 0 15C0 18.2812 1.02225 21.3225 2.76044 23.7919L0.953375 29.3644L6.52681 27.5213C8.81962 29.0925 11.5547 30 14.5036 30C22.4986 30 29 23.2706 29 15C29 6.72938 22.4986 0 14.5036 0ZM22.9408 21.1819C22.591 22.2038 21.2026 23.0512 20.0952 23.2987C19.3376 23.4656 18.3479 23.5988 15.0166 22.17C10.7554 20.3438 8.01125 15.8644 7.79738 15.5737C7.59256 15.2831 6.0755 13.2019 6.0755 11.0494C6.0755 8.89688 7.13219 7.84875 7.55813 7.39875C7.90794 7.02938 8.48612 6.86062 9.04075 6.86062C9.22019 6.86062 9.3815 6.87 9.5265 6.8775C9.95244 6.89625 10.1663 6.9225 10.4473 7.61813C10.7971 8.49 11.6489 10.6425 11.7504 10.8638C11.8537 11.085 11.9571 11.385 11.8121 11.6756C11.6761 11.9756 11.5565 12.1087 11.3426 12.3637C11.1287 12.6187 10.9257 12.8138 10.7119 13.0875C10.5161 13.3256 10.295 13.5806 10.5415 14.0213C10.788 14.4525 11.6399 15.8906 12.8941 17.0456C14.5127 18.5362 15.8249 19.0125 16.2944 19.215C16.6442 19.365 17.0611 19.3294 17.3166 19.0481C17.6411 18.6863 18.0416 18.0863 18.4494 17.4956C18.7394 17.0719 19.1056 17.0194 19.4898 17.1694C19.8813 17.31 21.953 18.3694 22.3789 18.5887C22.8049 18.81 23.0858 18.915 23.1891 19.1006C23.2906 19.2863 23.2906 20.1581 22.9408 21.1819Z" fill="white"/>
</svg>
