<svg width="39" height="22" viewBox="0 0 39 22" fill="none" xmlns="http://www.w3.org/2000/svg">
<path d="M38.6524 19.6226C38.5476 19.4491 37.8991 18.0561 34.7789 15.193C31.5124 12.1949 31.9512 12.6817 35.8856 7.49779C38.2819 4.34066 39.2399 2.41264 38.94 1.58841C38.6548 0.802742 36.8924 1.01 36.8924 1.01L31.0322 1.04374C31.0322 1.04374 30.5983 0.985904 30.2741 1.1763C29.9596 1.36428 29.7573 1.79808 29.7573 1.79808C29.7573 1.79808 28.8285 4.24185 27.5902 6.31929C24.9794 10.7031 23.9337 10.9345 23.5071 10.6621C22.5149 10.0283 22.7636 8.11234 22.7636 6.75309C22.7636 2.50422 23.4145 0.732851 21.4936 0.274947C20.8549 0.123115 20.3869 0.0218944 18.756 0.00502421C16.6645 -0.016666 14.8923 0.0122543 13.8904 0.496669C13.2225 0.819612 12.7082 1.54021 13.0226 1.58118C13.4102 1.63179 14.2878 1.81495 14.7534 2.44156C15.3555 3.24892 15.3335 5.06607 15.3335 5.06607C15.3335 5.06607 15.6797 10.0669 14.5267 10.6887C13.7344 11.1152 12.6497 10.2452 10.3217 6.26627C9.12965 4.2298 8.22771 1.97642 8.22771 1.97642C8.22771 1.97642 8.05464 1.55708 7.74505 1.33295C7.36965 1.06061 6.84311 0.973854 6.84311 0.973854L1.27058 1.00759C1.27058 1.00759 0.434451 1.03169 0.127304 1.39079C-0.145717 1.71132 0.105364 2.37167 0.105364 2.37167C0.105364 2.37167 4.46881 12.4624 9.40755 17.55C13.9392 22.2134 19.0827 21.9073 19.0827 21.9073H21.4131C21.4131 21.9073 22.1176 21.8302 22.4759 21.447C22.8075 21.0951 22.7953 20.4348 22.7953 20.4348C22.7953 20.4348 22.749 17.3427 24.2018 16.8872C25.6327 16.439 27.4708 19.8757 29.4185 21.1988C30.8908 22.1989 32.0097 21.9796 32.0097 21.9796L37.219 21.9073C37.219 21.9073 39.9444 21.741 38.6524 19.6226Z" fill="white"/>
</svg>
