<svg width="74" height="89" viewBox="0 0 74 89" fill="none" xmlns="http://www.w3.org/2000/svg">
<path d="M35.12 0.469104C34.9816 0.32103 34.8143 0.202998 34.6285 0.12231C34.4428 0.0416214 34.2425 -6.82927e-06 34.04 8.40479e-10H1.48C1.27752 4.2981e-07 1.0772 0.0416403 0.891425 0.122343C0.705649 0.203046 0.538373 0.321095 0.399942 0.469188C0.261511 0.617281 0.154871 0.792268 0.0866193 0.983322C0.0183678 1.17438 -0.0100442 1.37744 0.00314195 1.57994L4.44 69.7647V81.5833C4.4422 83.5497 5.22255 85.4349 6.60984 86.8253C7.99713 88.2157 9.87807 88.9978 11.84 89H66.6C68.5619 88.9978 70.4429 88.2157 71.8302 86.8253C73.2175 85.4349 73.9978 83.5497 74 81.5833V60.8167C73.9984 59.3742 73.5777 57.9633 72.7892 56.7565C72.0007 55.5498 70.8786 54.5993 69.56 54.0211V48.95C69.56 43.9667 67.5979 39.5768 63.8857 36.2549C62.2191 34.7508 60.3003 33.554 58.2178 32.7197C57.8676 32.5803 57.4765 32.5853 57.13 32.7337C56.7834 32.882 56.5094 33.1618 56.3678 33.5118C56.2949 33.65 55.603 34.8787 53.472 36.1049C51.3242 37.3407 47.2688 38.8138 40.1469 38.8138C37.423 38.8138 35.054 39.0913 33.0399 39.6463L35.5169 1.58031C35.5301 1.37773 35.5017 1.17458 35.4335 0.983446C35.3652 0.792309 35.2585 0.617249 35.12 0.469104ZM32.4603 2.96667L32.2673 5.93333H3.25267L3.05971 2.96667H32.4603ZM23.68 80.1V62.3H71.04V80.1H23.68ZM14.8 80.1V78.6167C14.8004 78.2234 14.9565 77.8464 15.234 77.5683C15.5114 77.2902 15.8876 77.1338 16.28 77.1333H19.24C19.6324 77.1338 20.0086 77.2902 20.286 77.5683C20.5635 77.8464 20.7196 78.2234 20.72 78.6167V80.1H14.8ZM20.72 74.4218C20.2448 74.2528 19.7442 74.1665 19.24 74.1667H16.28C15.1028 74.168 13.9743 74.6373 13.1419 75.4715C12.3095 76.3058 11.8413 77.4369 11.84 78.6167V80.1H7.4V71.2H20.72V74.4218ZM7.65456 83.0667H20.8689C21.0884 84.1427 21.5445 85.1562 22.2041 86.0333H11.84C10.9222 86.0322 10.0272 85.7464 9.27787 85.2152C8.52852 84.6841 7.96149 83.9336 7.65456 83.0667ZM66.6 86.0333H28.12C27.2022 86.0322 26.3072 85.7464 25.5579 85.2152C24.8085 84.6841 24.2415 83.9336 23.9346 83.0667H70.7854C70.4785 83.9336 69.9115 84.6841 69.1621 85.2152C68.4128 85.7464 67.5178 86.0322 66.6 86.0333ZM70.7854 59.3333H23.9346C24.2415 58.4664 24.8085 57.7159 25.5579 57.1848C26.3072 56.6536 27.2022 56.3679 28.12 56.3667H66.6C67.5178 56.3679 68.4128 56.6536 69.1621 57.1848C69.9115 57.7159 70.4785 58.4664 70.7854 59.3333ZM28.12 53.4V50.4333H66.6V53.4H28.12ZM55.29 38.474C56.4094 37.8138 57.41 36.9697 58.25 35.977C59.6054 36.6603 60.8638 37.5217 61.992 38.5383C64.6769 40.9728 66.1987 43.971 66.5301 47.4669H28.201C28.3727 46.557 28.7852 45.7101 29.3954 45.0147C31.2269 42.8989 34.9454 41.7807 40.1469 41.7807C46.6015 41.7805 51.6957 40.668 55.29 38.474ZM27.096 43.1439C25.7662 44.7014 25.0787 46.7083 25.1733 48.7561C25.1647 48.8203 25.1602 48.8851 25.16 48.95V54.0211C23.8414 54.5993 22.7193 55.5498 21.9308 56.7565C21.1423 57.9633 20.7216 59.3742 20.72 60.8167V68.2333H7.3075L3.44562 8.9H32.0744L29.9959 40.8404C28.8935 41.4184 27.9099 42.1999 27.0968 43.1437L27.096 43.1439Z" fill="#417F55"/>
<path d="M55.2686 66.6899C53.132 65.7723 50.3231 65.2667 47.36 65.2667C44.3969 65.2667 41.588 65.7723 39.4514 66.6899C36.0308 68.1592 35.52 70.1463 35.52 71.2C35.52 72.2537 36.0308 74.2408 39.4514 75.7101C41.588 76.6277 44.3969 77.1333 47.36 77.1333C50.3231 77.1333 53.132 76.6277 55.2686 75.7101C58.6892 74.2408 59.2 72.2537 59.2 71.2C59.2 70.1463 58.6892 68.1592 55.2686 66.6899ZM47.36 74.1667C41.8514 74.1667 38.48 72.2459 38.48 71.2C38.48 70.1541 41.8514 68.2333 47.36 68.2333C52.8686 68.2333 56.24 70.1541 56.24 71.2C56.24 72.2459 52.8686 74.1667 47.36 74.1667Z" fill="#417F55"/>
<path d="M26.64 11.8667H8.88C8.48748 11.8667 8.11103 12.0229 7.83348 12.3011C7.55593 12.5793 7.4 12.9566 7.4 13.35V22.25C7.4 22.6434 7.55593 23.0207 7.83348 23.2989C8.11103 23.5771 8.48748 23.7333 8.88 23.7333H26.64C27.0325 23.7333 27.409 23.5771 27.6865 23.2989C27.9641 23.0207 28.12 22.6434 28.12 22.25V13.35C28.12 12.9566 27.9641 12.5793 27.6865 12.3011C27.409 12.0229 27.0325 11.8667 26.64 11.8667ZM25.16 20.7667H10.36V14.8333H25.16V20.7667Z" fill="#417F55"/>
<path d="M23.68 26.7H11.84C11.4475 26.7 11.071 26.8563 10.7935 27.1345C10.5159 27.4126 10.36 27.7899 10.36 28.1833C10.36 28.5767 10.5159 28.954 10.7935 29.2322C11.071 29.5104 11.4475 29.6667 11.84 29.6667H23.68C24.0725 29.6667 24.449 29.5104 24.7265 29.2322C25.0041 28.954 25.16 28.5767 25.16 28.1833C25.16 27.7899 25.0041 27.4126 24.7265 27.1345C24.449 26.8563 24.0725 26.7 23.68 26.7Z" fill="#417F55"/>
</svg>
