<svg width="104" height="91" viewBox="0 0 104 91" fill="none" xmlns="http://www.w3.org/2000/svg">
<path d="M51.9999 35.5022C61.7442 35.5022 69.6717 27.5391 69.6717 17.7511C69.6717 7.96311 61.7442 0 51.9999 0C42.2556 0 34.3281 7.96311 34.3281 17.7511C34.3281 27.5391 42.2556 35.5022 51.9999 35.5022ZM51.9999 6.12108C58.3841 6.12108 63.578 11.3383 63.578 17.7511C63.578 24.164 58.3841 29.3812 51.9999 29.3812C45.6157 29.3812 40.4218 24.164 40.4218 17.7511C40.4218 11.3383 45.6157 6.12108 51.9999 6.12108Z" fill="#417F55"/>
<path d="M87.7498 35.5022C93.91 35.5022 98.9217 30.4681 98.9217 24.2803C98.9217 18.0925 93.91 13.0583 87.7498 13.0583C81.5897 13.0583 76.578 18.0925 76.578 24.2803C76.578 30.4681 81.5897 35.5022 87.7498 35.5022ZM87.7498 19.1794C90.5499 19.1794 92.8279 21.4676 92.8279 24.2803C92.8279 27.0929 90.5499 29.3812 87.7498 29.3812C84.9498 29.3812 82.6717 27.0929 82.6717 24.2803C82.6717 21.4676 84.9498 19.1794 87.7498 19.1794Z" fill="#417F55"/>
<path d="M90.2076 42.4395H85.4951C79.9419 42.4395 75.1482 45.735 72.9638 50.4687C68.4664 45.5371 62.0064 42.4395 54.8394 42.4395H49.1606C41.9936 42.4395 35.5336 45.5371 31.0362 50.4687C28.8516 45.735 24.0579 42.4395 18.5047 42.4395H13.7922C6.18718 42.4395 0 48.6169 0 56.2098V78.4926C0 81.789 2.68003 84.4709 5.9743 84.4709H24.6063C24.9187 88.1231 27.9762 91 31.6919 91H72.3081C76.0237 91 79.0811 88.1231 79.3937 84.4709H97.8128C101.225 84.4709 104 81.6939 104 78.2804V56.2098C104 48.6169 97.8126 42.4395 90.2076 42.4395ZM6.09374 56.2098C6.09374 51.992 9.54726 48.5605 13.7922 48.5605H18.5047C22.7495 48.5605 26.2031 51.992 26.2031 56.2098V58.3055C24.1542 63.6643 24.5781 66.8758 24.5781 78.3498H6.09374V56.2098ZM73.328 83.8545C73.328 84.4194 72.8706 84.8789 72.3081 84.8789H31.6917C31.1293 84.8789 30.6718 84.4192 30.6718 83.8545V67.1323C30.6718 56.8917 38.9658 48.5605 49.1604 48.5605H54.8392C65.034 48.5605 73.328 56.8917 73.328 67.1321V83.8545ZM97.9061 78.2804C97.9061 78.3859 99.0419 78.3498 79.4217 78.3498C79.4217 66.7909 79.8424 63.6555 77.7967 58.3055V56.2098C77.7967 51.992 81.2503 48.5605 85.4951 48.5605H90.2076C94.4525 48.5605 97.9061 51.992 97.9061 56.2098V78.2804Z" fill="#417F55"/>
<path d="M16.25 35.5022C22.4101 35.5022 27.4218 30.4681 27.4218 24.2803C27.4218 18.0925 22.4101 13.0583 16.25 13.0583C10.0898 13.0583 5.07812 18.0925 5.07812 24.2803C5.07812 30.4681 10.0898 35.5022 16.25 35.5022ZM16.25 19.1794C19.05 19.1794 21.3281 21.4676 21.3281 24.2803C21.3281 27.0929 19.05 29.3812 16.25 29.3812C13.4499 29.3812 11.1719 27.0929 11.1719 24.2803C11.1719 21.4676 13.4499 19.1794 16.25 19.1794Z" fill="#417F55"/>
</svg>
