<svg width="94" height="63" viewBox="0 0 94 63" fill="none" xmlns="http://www.w3.org/2000/svg">
<path d="M19.1567 29.0257C20.0049 28.5771 20.9157 28.1808 21.8419 27.8365V24.6496C21.8419 23.8881 22.4561 23.2674 23.2158 23.2674C23.9757 23.2674 24.5949 23.8881 24.5949 24.6496V26.9603C27.3272 26.2249 29.9502 25.8754 31.4698 25.8129C32.0683 25.7972 32.6824 25.8077 33.286 25.8077V24.6498C33.286 23.8882 33.9002 23.2676 34.6599 23.2676C35.4249 23.2676 36.039 23.8882 36.039 24.6498V25.8077H38.7193V22.4229C38.7193 21.2127 38.2249 20.1122 37.4287 19.3088C36.6324 18.5108 35.5343 18.0155 34.3268 18.0155H32.4586C31.4073 18.5787 30.2103 18.902 28.9404 18.902C27.6707 18.902 26.4685 18.5787 25.4172 18.0155H23.5541C22.3468 18.0155 21.2486 18.5108 20.4523 19.3088C19.6509 20.107 19.1565 21.2127 19.1565 22.4229L19.1567 29.0257ZM44.1579 25.8075V24.6496C44.1579 23.8881 44.772 23.2674 45.5317 23.2674C46.2968 23.2674 46.9109 23.8881 46.9109 24.6496V25.8075H55.602V24.6496C55.602 23.8881 56.2161 23.2674 56.9812 23.2674C57.7411 23.2674 58.355 23.8881 58.355 24.6496V26.1047C59.3282 26.3761 60.2337 26.814 61.0404 27.3879V22.4227C61.0404 21.2125 60.5407 20.112 59.7444 19.3086C58.9482 18.5106 57.8501 18.0153 56.6426 18.0153H54.7744C53.7231 18.5785 52.5261 18.9018 51.2564 18.9018C49.9866 18.9018 48.7896 18.5785 47.7383 18.0153H45.8701C44.6626 18.0153 43.5645 18.5106 42.7683 19.3086C41.972 20.1068 41.4723 21.2125 41.4723 22.4227V25.8075H44.1579ZM63.7934 30.6791C64.3139 31.7797 64.6104 33.0106 64.6104 34.3095C64.6104 35.6133 64.3086 36.8599 63.7673 37.9864C64.6416 37.5483 65.5783 37.1622 66.4735 36.7659V24.6496C66.4735 23.8881 67.0876 23.2674 67.8527 23.2674C68.6124 23.2674 69.2265 23.8881 69.2265 24.6496V35.5298L77.9174 31.644V24.6496C77.9174 23.8881 78.5369 23.2674 79.2966 23.2674C80.0565 23.2674 80.6706 23.8881 80.6706 24.6496V30.4129L82.1278 29.761C82.5286 29.5836 82.9396 29.4375 83.356 29.3229V22.4225C83.356 21.2123 82.8616 20.1118 82.0602 19.3085C81.264 18.5105 80.1659 18.0151 78.9584 18.0151H77.0953C76.0441 18.5784 74.8419 18.9016 73.572 18.9016C72.302 18.9016 71.1052 18.5784 70.0539 18.0151H68.1857C66.9782 18.0151 65.8801 18.5105 65.0839 19.3085C64.2876 20.1067 63.7932 21.2123 63.7932 22.4225V30.6791H63.7934ZM86.109 29.036C86.9677 29.0934 87.8109 29.2761 88.6072 29.5838C90.6317 30.361 92.3595 31.9101 93.3171 34.0537C94.2277 36.1037 94.1757 38.122 93.468 39.9789C92.703 41.9764 91.1729 43.755 89.2786 45.1267L81.8418 50.5199C81.2276 50.9685 80.369 50.8327 79.9214 50.2121C79.4789 49.5966 79.6142 48.736 80.2283 48.2874L87.6652 42.8946C89.1484 41.82 90.335 40.4691 90.8969 38.9982C91.355 37.7933 91.3914 36.4895 90.8086 35.1752C90.1633 33.7304 88.9975 32.682 87.6288 32.1604C86.255 31.6337 84.6884 31.6284 83.2468 32.2752L65.2038 40.3441C64.1993 40.85 63.2002 41.33 62.1124 41.7105C61.0248 42.0861 59.6613 42.3991 58.5059 42.3991H38.3446C37.5847 42.3991 36.9708 41.7836 36.9708 41.0222C36.9708 40.2608 37.5849 39.64 38.3446 39.64H58.2663C59.3071 39.2175 60.1816 38.5082 60.806 37.6162C61.4721 36.6722 61.8572 35.5248 61.8572 34.3095C61.8572 32.7341 61.2119 31.2946 60.1709 30.2569C59.1301 29.2136 57.699 28.5668 56.1221 28.5668H31.5584C29.6746 28.5668 26.7549 29.2082 24.9439 29.7247C23.1225 30.2359 21.2645 30.9399 19.7293 31.8683C20.3018 32.9166 20.6297 34.1214 20.6297 35.3993V40.6672C20.6297 41.4288 20.0155 42.0495 19.2558 42.0495C18.4959 42.0495 17.8767 41.4288 17.8767 40.6672V35.3993C17.8767 32.9481 15.9355 30.8512 13.4427 30.8512H7.18695C4.70458 30.8512 2.75298 32.9376 2.75298 35.3993V52.3975C2.75298 53.6546 3.25787 54.7917 4.06439 55.6156C4.86596 56.4344 5.96917 56.9456 7.18695 56.9456H13.4423C14.6601 56.9456 15.7687 56.4344 16.57 55.6156C17.408 54.7604 17.8763 53.6025 17.8763 52.3975V47.1244C17.8763 46.3628 18.4956 45.7475 19.2555 45.7475C20.0154 45.7475 20.6293 46.363 20.6293 47.1244V52.3975C20.6293 53.3103 20.4628 54.1865 20.1556 54.995C20.879 55.506 21.6233 55.9651 22.3934 56.3408C23.4498 56.8518 24.5376 57.2065 25.6408 57.3055L54.8471 59.9864C59.0365 60.3776 63.0541 60.748 67.5765 57.4672L75.0134 52.0742C75.6275 51.6307 76.4861 51.7663 76.9337 52.3818C77.3762 52.9973 77.2407 53.8579 76.6268 54.3065L69.19 59.6997C63.8349 63.5854 59.3176 63.163 54.5974 62.7247L25.3967 60.044C23.929 59.9135 22.524 59.4649 21.2021 58.8182C20.333 58.4009 19.5055 57.9004 18.7144 57.3475C17.3562 58.8391 15.4619 59.7049 13.4425 59.7049H7.18695C5.20928 59.7049 3.4086 58.8756 2.10765 57.5456C0.80671 56.2208 0 54.4005 0 52.3975V35.3993C0 31.4249 3.19526 28.0921 7.18695 28.0921H13.4423C14.4987 28.0921 15.498 28.3267 16.4035 28.744V22.4227C16.4035 20.4509 17.2102 18.6567 18.5009 17.3581C19.5782 16.2837 20.9886 15.5431 22.5602 15.3239C21.8524 14.1765 21.4411 12.8256 21.4411 11.3861V4.81419C21.4411 3.48939 21.9824 2.28455 22.8515 1.41368C23.7206 0.542617 24.9228 0 26.2447 0H35.0605C35.8204 0 36.4343 0.620818 36.4343 1.3824V11.3861C36.4343 12.8256 36.0284 14.1765 35.3155 15.3239C36.8924 15.5429 38.3027 16.2837 39.3747 17.3581C39.6349 17.619 39.8796 17.9058 40.0981 18.2032C40.3166 17.9058 40.5562 17.619 40.8215 17.3581C41.8935 16.2837 43.3038 15.5431 44.8756 15.3239C44.1678 14.1765 43.7568 12.8256 43.7568 11.3861V4.81419C43.7568 3.48939 44.298 2.28455 45.1671 1.41368C46.0362 0.542617 47.2384 0 48.5603 0H53.9519C55.2738 0 56.4759 0.542433 57.3451 1.41368C58.214 2.28455 58.7554 3.48939 58.7554 4.81419V11.3861C58.7554 12.8256 58.3444 14.1765 57.6364 15.3239C59.2082 15.5429 60.6185 16.2837 61.6905 17.3581C61.956 17.619 62.1952 17.9058 62.4139 18.2032C62.6324 17.9058 62.8769 17.619 63.1372 17.3581C64.2093 16.2837 65.6198 15.5431 67.1965 15.3239C66.4836 14.1765 66.0775 12.8256 66.0775 11.3861V4.81419C66.0775 3.48939 66.6136 2.28455 67.4879 1.41368C68.357 0.542617 69.5538 0 70.8759 0H76.2675C77.5894 0 78.7915 0.542433 79.6607 1.41368C80.5298 2.28455 81.071 3.48939 81.071 4.81419V11.3861C81.071 12.8256 80.6598 14.1765 79.952 15.3239C81.5238 15.5429 82.9341 16.2837 84.0113 17.3581C85.3019 18.6569 86.1085 20.4511 86.1085 22.4227V29.036H86.109ZM78.3182 9.8317L72.5468 7.87578L68.831 9.70125V11.386C68.831 12.69 69.3618 13.8792 70.2258 14.7397C71.0845 15.6056 72.271 16.1376 73.5722 16.1376C74.8784 16.1376 76.0598 15.6056 76.9237 14.7397C77.7823 13.8792 78.3184 12.69 78.3184 11.386V9.8317H78.3182ZM68.831 6.63966L71.7715 5.19507C72.0994 5.00721 72.5104 4.95513 72.8956 5.08541L78.3184 6.9267V4.81437C78.3184 4.25097 78.0843 3.73999 77.7148 3.36445C77.34 2.99406 76.83 2.75927 76.268 2.75927H70.8763C70.3194 2.75927 69.8043 2.99406 69.4347 3.36445C69.06 3.73999 68.831 4.25097 68.831 4.81437V6.63966ZM24.1943 5.41385H33.6817V2.75909H26.2449C25.6827 2.75909 25.1727 2.99387 24.7982 3.36427C24.4286 3.73981 24.1943 4.25078 24.1943 4.81419V5.41385ZM33.6817 8.17312H24.1943V11.3861C24.1943 12.6902 24.7304 13.8793 25.5891 14.7399C26.4531 15.6058 27.6343 16.1378 28.9406 16.1378C30.2417 16.1378 31.4283 15.6058 32.2869 14.7399C33.1509 13.8793 33.6817 12.6902 33.6817 11.3861V8.17312ZM55.9975 9.79527C54.3424 9.98829 51.8444 9.87347 49.716 8.07394C48.9561 8.49126 47.8478 8.91888 46.5154 8.8668V11.386C46.5154 12.69 47.0464 13.8792 47.9102 14.7397C48.7689 15.6056 49.9556 16.1376 51.2565 16.1376C52.5575 16.1376 53.7441 15.6056 54.6029 14.7397C55.4669 13.8792 55.9977 12.69 55.9977 11.386V9.79527H55.9975ZM46.5152 6.11287C47.3895 6.18058 48.3264 5.8468 48.9769 5.26775C49.5493 4.76709 50.4184 4.82965 50.9129 5.40336C52.5366 7.27593 54.7641 7.23417 55.9975 7.02532V4.81382C55.9975 4.25041 55.7685 3.73944 55.399 3.3639C55.0243 2.9935 54.5142 2.75872 53.9521 2.75872H48.5605C47.9985 2.75872 47.4885 2.9935 47.1138 3.3639C46.7442 3.73944 46.5152 4.25041 46.5152 4.81382V6.11287Z" fill="#417F55"/>
</svg>
