<svg width="44" height="44" viewBox="0 0 44 44" fill="none" xmlns="http://www.w3.org/2000/svg">
<path d="M32.0896 44H11.9104C5.3429 44 0 38.6571 0 32.0896V11.9101C0 5.3429 5.3429 0 11.9104 0H32.0899C38.6571 0 44 5.3429 44 11.9101V32.0896C44 38.6571 38.6571 44 32.0896 44ZM22 9.96909C15.366 9.96909 9.96909 15.366 9.96909 22C9.96909 28.634 15.366 34.0309 22 34.0309C28.634 34.0309 34.0309 28.634 34.0309 22C34.0309 15.366 28.634 9.96909 22 9.96909ZM34.3186 31.1936C32.3582 31.1936 30.7636 32.7882 30.7636 34.7486C30.7636 36.7091 32.3582 38.304 34.3186 38.304C36.2791 38.304 37.8739 36.7091 37.8739 34.7486C37.8739 32.7882 36.2791 31.1936 34.3186 31.1936Z" fill="#417F55"/>
<path d="M22 31.4514C16.7887 31.4514 12.5486 27.2116 12.5486 22C12.5486 16.7887 16.7887 12.5486 22 12.5486C27.2116 12.5486 31.4514 16.7887 31.4514 22C31.4514 27.2116 27.2116 31.4514 22 31.4514Z" fill="#417F55"/>
<path d="M34.3186 35.7242C33.7808 35.7242 33.3431 35.2864 33.3431 34.7486C33.3431 34.2108 33.7808 33.7731 34.3186 33.7731C34.8567 33.7731 35.2945 34.2105 35.2945 34.7486C35.2945 35.2867 34.8567 35.7242 34.3186 35.7242Z" fill="#417F55"/>
</svg>
