<svg width="86" height="95" viewBox="0 0 86 95" fill="none" xmlns="http://www.w3.org/2000/svg">
<path d="M63.5652 73.4766C62.5332 73.4766 61.6957 74.3078 61.6957 75.332C61.6957 76.3562 62.5332 77.1875 63.5652 77.1875C64.5972 77.1875 65.4348 76.3562 65.4348 75.332C65.4348 74.3078 64.5972 73.4766 63.5652 73.4766Z" fill="#417F55"/>
<path d="M68.1685 67.4765L59.2824 64.5375L56.0924 58.2053C58.9663 55.3022 60.9617 51.4611 61.6345 47.4545L62.0324 45.0879H65.4348C68.5274 45.0879 71.0435 42.5908 71.0435 39.5215V27.832C71.0435 12.4854 58.4632 0 43 0C27.4972 0 14.9565 12.4496 14.9565 27.832V39.5215C14.9565 41.9403 16.5197 44.0028 18.6957 44.7687V46.9434C18.6957 50.0127 21.2117 52.5098 24.3043 52.5098H25.9462C26.7567 54.2571 27.8057 55.8754 29.0822 57.3292C29.3469 57.6312 29.6231 57.924 29.9059 58.2088L26.7176 64.5375L17.8314 67.4767C7.4992 70.896 0 81.6909 0 93.1445C0 94.1693 0.837004 95 1.86957 95H84.1304C85.1628 95 86 94.1693 86 93.1445C86 81.6909 78.501 70.896 68.1685 67.4765ZM67.3044 39.5215C67.3044 40.5446 66.4657 41.377 65.4348 41.377H62.5815C63.0567 37.7235 63.3734 33.8358 63.5007 30.0066C63.5045 29.8987 63.5075 29.7936 63.5108 29.6875H67.3044V39.5215ZM20.5652 41.377C19.5343 41.377 18.6957 40.5446 18.6957 39.5215V29.6875H22.4905C22.4967 29.881 22.5032 30.0755 22.5105 30.2712C22.5107 30.2779 22.5111 30.2844 22.5112 30.2911C22.5112 30.2916 22.5112 30.2922 22.5112 30.2928C22.6421 34.017 22.9547 37.8039 23.4191 41.3768H20.5652V41.377ZM24.3043 48.7988C23.2735 48.7988 22.4348 47.9665 22.4348 46.9434V45.0879H23.9675L24.3653 47.4553C24.4412 47.9052 24.5345 48.3535 24.6424 48.7988H24.3043ZM22.438 25.9766H18.7667C19.7136 13.541 30.1705 3.71094 43 3.71094C55.7725 3.71094 66.2753 13.5397 67.2331 25.9766H63.5622C63.4276 15.7294 55.0196 7.42188 44.6734 7.42188H41.3269C30.9809 7.42188 22.5724 15.7294 22.438 25.9766ZM41.3267 11.1328H44.6733C53.0506 11.1328 59.8309 17.9333 59.8261 26.2382C59.8261 26.8221 59.8214 27.3305 59.8115 27.7931C59.8115 27.799 59.8113 27.8051 59.8113 27.8113L57.4729 27.4797C51.1201 26.5794 45.1218 23.6029 40.5828 19.0982C40.2321 18.7503 39.7567 18.5547 39.2609 18.5547C34.24 18.5547 29.4337 20.825 26.2565 24.6607C27.0395 17.1054 33.4751 11.1328 41.3267 11.1328ZM28.5183 48.7988C27.5824 45.7089 26.5116 36.6171 26.2749 30.7909L28.7911 27.4611C31.1021 24.4041 34.6974 22.5046 38.522 22.2866C43.5543 27.0396 50.0645 30.1783 56.9442 31.1531L59.6965 31.5435C59.5126 35.4187 59.1366 39.3074 58.598 42.8838C58.5978 42.8849 58.5976 42.8862 58.5974 42.8875C58.4262 44.0373 58.2912 44.7773 57.9464 46.8441C56.9563 52.738 52.5251 58.0678 46.6754 59.5194C44.2679 60.1159 41.7317 60.1157 39.3256 59.5194C35.673 58.6131 32.3238 56.1049 30.1624 52.5098H33.9737C34.7455 54.6693 36.8235 56.2207 39.2609 56.2207H43C46.0988 56.2207 48.6087 53.7299 48.6087 50.6543C48.6087 47.585 46.0926 45.0879 43 45.0879H39.2609C36.7693 45.0879 34.7219 46.6851 33.9706 48.7988H28.5183ZM39.1036 63.2745C40.386 63.5426 41.6934 63.6797 43 63.6797C44.0228 63.6797 45.0459 63.5947 46.0573 63.4299L42.7538 66.8973L39.1036 63.2745ZM40.1835 69.5947L34.2536 75.8184C32.6211 72.7171 31.2184 69.4895 30.0678 66.1853L32.2947 61.7652L40.1835 69.5947ZM53.3884 61.1366L55.9318 66.1851C54.7794 69.4949 53.3763 72.7236 51.7455 75.8211L45.3987 69.5222L53.3884 61.1366ZM37.3913 50.6543C37.3913 49.6299 38.2285 48.7988 39.2609 48.7988H43C44.0309 48.7988 44.8696 49.6312 44.8696 50.6543C44.8696 51.6789 44.0322 52.5098 43 52.5098H39.2609C38.23 52.5098 37.3913 51.6774 37.3913 50.6543ZM3.81391 91.2891C4.55482 82.0973 10.7186 73.7424 19.0139 70.9971L26.8836 68.3942C28.3254 72.351 30.1116 76.1969 32.2049 79.8499C32.2085 79.8562 32.2119 79.8625 32.2154 79.8687L32.2156 79.869C33.7451 82.5389 35.4666 85.1478 37.333 87.6247L39.6329 91.2891H3.81391ZM43 89.6351L40.4645 85.5952C40.4361 85.5499 40.4058 85.5059 40.3736 85.4633C38.8597 83.459 37.4474 81.3629 36.1611 79.2174L42.8286 72.2197L49.854 79.1921C48.5592 81.3532 47.142 83.4581 45.6267 85.4629C45.5351 85.5841 45.6651 85.3931 43 89.6351ZM46.3671 91.2891L48.6668 87.6249C50.5415 85.1386 52.2753 82.5086 53.8201 79.8074C53.8295 79.7911 53.8382 79.7744 53.8476 79.7581C53.8487 79.756 53.8498 79.7542 53.851 79.7521C55.9178 76.134 57.6852 72.3215 59.1164 68.3942L66.986 70.9971C75.2814 73.7424 81.4452 82.0973 82.1861 91.2891H46.3671Z" fill="#417F55"/>
<path d="M76.5673 83.7802C75.3179 81.2981 73.4877 79.0931 71.2747 77.4035C70.4562 76.7784 69.2825 76.9303 68.6531 77.7427C68.0234 78.555 68.1765 79.7198 68.9948 80.3448C70.7623 81.6942 72.2239 83.4556 73.2221 85.4386C73.6844 86.3569 74.808 86.7265 75.7301 86.2693C76.6537 85.8113 77.0285 84.697 76.5673 83.7802Z" fill="#417F55"/>
</svg>
