<svg width="90" height="75" viewBox="0 0 90 75" fill="none" xmlns="http://www.w3.org/2000/svg">
<path d="M45 60.7143C44.0297 60.7143 43.2422 61.5143 43.2422 62.5C43.2422 63.4857 44.0297 64.2857 45 64.2857C45.9703 64.2857 46.7578 63.4857 46.7578 62.5C46.7578 61.5143 45.9703 60.7143 45 60.7143Z" fill="#417F55"/>
<path d="M82.4567 2.74464C78.1311 0.974821 72.5071 0 66.6211 0C60.7351 0 55.1111 0.974821 50.7855 2.74464C48.2293 3.79054 46.2776 5.06875 45 6.50304C43.7224 5.06875 41.7707 3.79071 39.2145 2.74482C34.8889 0.974821 29.2649 0 23.3789 0C17.4929 0 11.8689 0.974821 7.5433 2.74464C2.67891 4.735 0 7.56536 0 10.7143V53.5714C0 56.7204 2.67891 59.5507 7.5433 61.5411C11.5664 63.1871 16.7129 64.1443 22.1484 64.2704V64.2857C22.1484 70.3939 31.9725 75 45 75C58.0275 75 67.8516 70.3939 67.8516 64.2857V64.2704C73.2871 64.1443 78.4336 63.1871 82.4567 61.5411C87.3211 59.5507 90 56.7204 90 53.5714V10.7143C90 7.56536 87.3211 4.735 82.4567 2.74464ZM86.4844 42.8571C86.4844 44.3816 84.4378 46.1659 81.1433 47.5139C77.5775 48.9729 72.7903 49.8555 67.8516 49.9823V42.8571C67.8516 42.852 67.8512 42.8468 67.8512 42.8418C73.2869 42.7159 78.4334 41.7588 82.4569 40.1125C84.0359 39.4664 85.3829 38.7314 86.4846 37.9261L86.4844 42.8571ZM43.2422 21.4286C43.2422 22.953 41.1956 24.7373 37.9011 26.0854C34.0397 27.6654 28.7466 28.5714 23.3789 28.5714C18.0112 28.5714 12.7181 27.6654 8.85674 26.0854C5.56225 24.7373 3.51562 22.953 3.51562 21.4286V16.4975C4.61725 17.3029 5.96426 18.0379 7.5433 18.6839C11.8689 20.4538 17.4929 21.4286 23.3789 21.4286C29.2649 21.4286 34.8889 20.4538 39.2145 18.6839C40.7936 18.0379 42.1406 17.3029 43.2422 16.4975V21.4286ZM7.5433 29.3982C11.8689 31.168 17.4929 32.1429 23.3789 32.1429C29.2649 32.1429 34.8889 31.168 39.2145 29.3982C40.7936 28.7521 42.1406 28.0171 43.2422 27.2118V32.1745C38.6947 32.3309 34.3336 33.0891 30.8062 34.3511C27.2682 35.617 24.7224 37.305 23.3379 39.2852C17.9844 39.2805 12.7083 38.3755 8.85674 36.7996C5.56225 35.4516 3.51562 33.6673 3.51562 32.1429V27.2118C4.61725 28.0171 5.96426 28.7521 7.5433 29.3982ZM3.51562 37.9261C4.61725 38.7314 5.96426 39.4664 7.5433 40.1125C11.5666 41.7586 16.7133 42.7157 22.149 42.8418C22.149 42.847 22.1486 42.8521 22.1486 42.8571V49.9823C17.2097 49.8555 12.4226 48.9729 8.85691 47.5139C5.56225 46.1659 3.51562 44.3816 3.51562 42.8571V37.9261ZM25.85 41.9798C27.1528 38.9 34.6718 35.7143 45 35.7143C55.3282 35.7143 62.8472 38.9 64.1486 41.9762C64.2748 42.2764 64.3359 42.5645 64.3359 42.8571C64.3359 44.4271 62.4306 46.1711 59.2392 47.522C55.4641 49.12 50.4072 50 45 50C39.5928 50 34.5359 49.12 30.7608 47.522C27.5694 46.1711 25.6641 44.4271 25.6641 42.8571C25.6641 42.5645 25.7254 42.2764 25.85 41.9798ZM86.4844 32.1429C86.4844 33.6673 84.4378 35.4516 81.1433 36.7996C77.2919 38.3755 72.016 39.2805 66.6626 39.2852C65.2792 37.3061 62.733 35.6173 59.1938 34.3511C55.6664 33.0889 51.3053 32.3309 46.7578 32.1745V27.2118C47.8594 28.0171 49.2064 28.7521 50.7855 29.3982C55.1111 31.168 60.7351 32.1429 66.6211 32.1429C72.5071 32.1429 78.1311 31.168 82.4567 29.3982C84.0357 28.7521 85.3828 28.0171 86.4844 27.2118V32.1429ZM86.4844 21.4286C86.4844 22.953 84.4378 24.7373 81.1433 26.0854C77.2819 27.6654 71.9887 28.5714 66.6211 28.5714C61.2534 28.5714 55.9603 27.6654 52.0989 26.0854C48.8044 24.7373 46.7578 22.953 46.7578 21.4286V16.4975C47.8594 17.3029 49.2064 18.0379 50.7855 18.6839C55.1111 20.4538 60.7351 21.4286 66.6211 21.4286C72.5071 21.4286 78.1311 20.4538 82.4567 18.6839C84.0357 18.0379 85.3828 17.3029 86.4844 16.4975V21.4286ZM52.0989 6.0575C55.9603 4.4775 61.2534 3.57143 66.6211 3.57143C71.9887 3.57143 77.2819 4.4775 81.1433 6.0575C84.4378 7.40554 86.4844 9.18982 86.4844 10.7143C86.4844 12.2388 84.4378 14.023 81.1433 15.3711C77.2819 16.9511 71.9887 17.8571 66.6211 17.8571C61.2534 17.8571 55.9603 16.9511 52.0989 15.3711C48.8044 14.023 46.7578 12.2388 46.7578 10.7143C46.7578 9.18982 48.8044 7.40554 52.0989 6.0575ZM8.85674 6.0575C12.7181 4.4775 18.0112 3.57143 23.3789 3.57143C28.7466 3.57143 34.0397 4.4775 37.9011 6.0575C41.1956 7.40554 43.2422 9.18982 43.2422 10.7143C43.2422 12.2388 41.1956 14.023 37.9011 15.3711C34.0397 16.9511 28.7466 17.8571 23.3789 17.8571C18.0112 17.8571 12.7181 16.9511 8.85674 15.3711C5.56225 14.023 3.51562 12.2388 3.51562 10.7143C3.51562 9.18982 5.56225 7.40554 8.85674 6.0575ZM8.85674 58.2282C5.56225 56.8802 3.51562 55.0959 3.51562 53.5714V48.6404C4.61725 49.4457 5.96426 50.1807 7.5433 50.8268C11.5664 52.4729 16.7129 53.43 22.1484 53.5561V60.6968C17.2095 60.5698 12.4225 59.6873 8.85674 58.2282ZM59.2392 68.9505C55.4641 70.5486 50.4072 71.4286 45 71.4286C39.5928 71.4286 34.5359 70.5486 30.7608 68.9505C27.5694 67.5996 25.6641 65.8557 25.6641 64.2857V59.4588C26.0622 59.7514 26.5022 60.0423 26.9902 60.3291C29.7199 61.9338 33.4339 63.1207 37.7311 63.7614C37.8178 63.7743 37.9035 63.7805 37.9886 63.7805C38.8464 63.7805 39.5972 63.1418 39.7255 62.2539C39.8665 61.2782 39.202 60.3711 38.2417 60.2279C30.0723 59.0095 25.6641 55.8891 25.6641 53.5714V48.7286C29.6427 51.6861 36.6657 53.5714 45 53.5714C53.3343 53.5714 60.3573 51.6861 64.3359 48.7286V53.5714C64.3359 55.8891 59.9277 59.0095 51.7583 60.2279C50.7978 60.3711 50.1333 61.2782 50.2745 62.2539C50.4028 63.142 51.1536 63.7805 52.0114 63.7805C52.0963 63.7805 52.1824 63.7743 52.2689 63.7614C56.5659 63.1207 60.28 61.9339 63.0098 60.3291C63.4976 60.0423 63.9378 59.7514 64.3359 59.4588V64.2857C64.3359 65.8557 62.4306 67.5996 59.2392 68.9505ZM81.1433 58.2282C77.5775 59.6871 72.7903 60.5698 67.8516 60.6966V53.5559C73.2871 53.4298 78.4336 52.4727 82.4567 50.8266C84.0357 50.1805 85.3828 49.4455 86.4844 48.6402V53.5714C86.4844 55.0959 84.4378 56.8802 81.1433 58.2282Z" fill="#417F55"/>
</svg>
