<svg width="59" height="59" viewBox="0 0 59 59" fill="none" xmlns="http://www.w3.org/2000/svg">
<circle cx="29.5" cy="29.5" r="29" stroke="#417F55"/>
<path d="M24.1653 16.9728L35.6931 29.0069L24.1653 41.041C23.9576 41.2655 23.9636 41.6234 24.1786 41.8402C24.3884 42.0517 24.721 42.0517 24.9308 41.8402L36.8408 29.406C37.0521 29.1853 37.0521 28.8275 36.8408 28.6068L24.9308 16.1725C24.723 15.948 24.3803 15.9418 24.1652 16.1586C23.9502 16.3755 23.9443 16.7333 24.152 16.9578C24.1563 16.9626 24.1607 16.9672 24.1652 16.9717L24.1653 16.9728Z" fill="#20803F"/>
<path d="M37 29.0069C37.0003 29.1569 36.9434 29.3009 36.8419 29.4071L24.9319 41.8413C24.7168 42.0582 24.3741 42.052 24.1664 41.8275C23.9638 41.6084 23.9638 41.2612 24.1664 41.0422L35.6931 29.0069L24.1653 16.9729C23.9503 16.756 23.9443 16.3982 24.152 16.1737C24.3597 15.9492 24.7024 15.943 24.9175 16.1598C24.922 16.1644 24.9264 16.169 24.9308 16.1737L36.8408 28.6079C36.9424 28.7136 36.9996 28.8572 37 29.0069Z" fill="#20803F"/>
</svg>
