<svg width="59" height="59" viewBox="0 0 59 59" fill="none" xmlns="http://www.w3.org/2000/svg">
<circle r="29" transform="matrix(-1 0 0 1 29.5 29.5)" stroke="#417F55"/>
<path d="M34.8347 16.9728L23.3069 29.0069L34.8347 41.041C35.0424 41.2655 35.0364 41.6234 34.8214 41.8402C34.6116 42.0517 34.279 42.0517 34.0692 41.8402L22.1592 29.406C21.9479 29.1853 21.9479 28.8275 22.1592 28.6068L34.0692 16.1725C34.277 15.948 34.6197 15.9418 34.8348 16.1586C35.0498 16.3755 35.0557 16.7333 34.848 16.9578C34.8437 16.9626 34.8393 16.9672 34.8348 16.9717L34.8347 16.9728Z" fill="#20803F"/>
<path d="M22 29.0069C21.9997 29.1569 22.0566 29.3009 22.1581 29.4071L34.0681 41.8413C34.2832 42.0582 34.6259 42.052 34.8336 41.8275C35.0362 41.6084 35.0362 41.2612 34.8336 41.0422L23.3069 29.0069L34.8347 16.9729C35.0497 16.756 35.0557 16.3982 34.848 16.1737C34.6403 15.9492 34.2976 15.943 34.0825 16.1598C34.078 16.1644 34.0736 16.169 34.0692 16.1737L22.1592 28.6079C22.0576 28.7136 22.0004 28.8572 22 29.0069Z" fill="#20803F"/>
</svg>
