<svg width="80" height="89" viewBox="0 0 80 89" fill="none" xmlns="http://www.w3.org/2000/svg">
<path d="M23.7037 43.0167V75.65C23.7037 76.0434 23.8598 76.4207 24.1376 76.6989C24.4155 76.9771 24.7923 77.1333 25.1852 77.1333H54.8148C55.2077 77.1333 55.5846 76.9771 55.8624 76.6989C56.1402 76.4207 56.2963 76.0434 56.2963 75.65V43.0167C56.2963 42.6233 56.1402 42.246 55.8624 41.9678C55.5846 41.6896 55.2077 41.5333 54.8148 41.5333H25.1852C24.7923 41.5333 24.4155 41.6896 24.1376 41.9678C23.8598 42.246 23.7037 42.6233 23.7037 43.0167ZM26.6667 44.5H53.3333V74.1667H26.6667V44.5Z" fill="#417F55"/>
<path d="M29.6296 23.7307C29.236 23.7307 28.8586 23.8873 28.5802 24.166C28.3019 24.4446 28.1456 24.8226 28.1456 25.2167V29.6667H25.1852C23.2213 29.6689 21.3385 30.451 19.9498 31.8414C18.5611 33.2318 17.78 35.117 17.7778 37.0833V81.5833C17.78 83.5497 18.5611 85.4349 19.9498 86.8253C21.3385 88.2157 23.2213 88.9978 25.1852 89H54.8148C56.7787 88.9978 58.6615 88.2157 60.0502 86.8253C61.4389 85.4349 62.22 83.5497 62.2222 81.5833V37.0833C62.22 35.117 61.4389 33.2318 60.0502 31.8414C58.6615 30.451 56.7787 29.6689 54.8148 29.6667H51.8545V25.2167C51.8545 24.8226 51.6981 24.4446 51.4198 24.166C51.1415 23.8873 50.764 23.7307 50.3704 23.7307H44.447V14.8333L53.3307 14.8359V19.2833C53.3307 19.4785 53.3691 19.6717 53.4437 19.852C53.5183 20.0323 53.6276 20.1961 53.7654 20.334C53.9032 20.472 54.0668 20.5815 54.2469 20.6562C54.4269 20.7308 54.6199 20.7693 54.8148 20.7693H60.7407C60.9356 20.7693 61.1286 20.7308 61.3087 20.6562C61.4887 20.5815 61.6523 20.472 61.7901 20.334C61.928 20.1961 62.0373 20.0323 62.1118 19.852C62.1864 19.6717 62.2248 19.4785 62.2248 19.2833V7.41667C62.2248 7.02257 62.0685 6.64462 61.7901 6.36596C61.5118 6.08729 61.1343 5.93074 60.7407 5.93074H50.2209C49.8767 4.25731 48.9669 2.75382 47.6449 1.67354C46.3229 0.593266 44.6694 0.00222837 42.963 0H37.037C35.0732 0.00220841 33.1903 0.784314 31.8016 2.17473C30.413 3.56515 29.6318 5.45032 29.6296 7.41667V13.35C29.6296 13.7434 29.7857 14.1207 30.0635 14.3989C30.3414 14.6771 30.7182 14.8333 31.1111 14.8333H35.553V23.7307H29.6296ZM50.3704 8.9026H59.2567V17.7974H56.2989V13.35C56.2989 12.9559 56.1425 12.578 55.8642 12.2993C55.5859 12.0206 55.2084 11.8641 54.8148 11.8641H50.3704V8.9026ZM54.8148 32.6333C55.9931 32.6347 57.1228 33.104 57.956 33.9382C58.7892 34.7725 59.2579 35.9035 59.2593 37.0833V81.5833C59.2579 82.7631 58.7892 83.8942 57.956 84.7284C57.1228 85.5627 55.9931 86.032 54.8148 86.0333H25.1852C24.0069 86.032 22.8772 85.5627 22.044 84.7284C21.2108 83.8942 20.7421 82.7631 20.7407 81.5833V37.0833C20.7421 35.9035 21.2108 34.7725 22.044 33.9382C22.8772 33.104 24.0069 32.6347 25.1852 32.6333H54.8148ZM32.5926 11.8667V7.41667C32.594 6.23688 33.0627 5.1058 33.8959 4.27156C34.7291 3.43732 35.8587 2.96804 37.037 2.96667H42.963C44.1413 2.96804 45.2709 3.43732 46.1041 4.27156C46.9373 5.1058 47.406 6.23688 47.4074 7.41667V11.8667H32.5926ZM41.4789 14.8333V23.7307H38.5211V14.8333H41.4789ZM48.8863 26.7026V29.6667H31.1137V26.7026H48.8863Z" fill="#417F55"/>
<path d="M5.92593 78.6167C5.92593 79.4968 6.18659 80.3572 6.67495 81.089C7.16331 81.8208 7.85744 82.3911 8.66956 82.7279C9.48167 83.0647 10.3753 83.1529 11.2374 82.9812C12.0996 82.8095 12.8915 82.3856 13.5131 81.7633C14.1346 81.1409 14.5579 80.348 14.7294 79.4848C14.9009 78.6216 14.8129 77.7269 14.4765 76.9137C14.1401 76.1006 13.5705 75.4056 12.8396 74.9166C12.1087 74.4277 11.2494 74.1667 10.3704 74.1667C9.19205 74.168 8.06239 74.6373 7.22919 75.4716C6.39599 76.3058 5.9273 77.4369 5.92593 78.6167ZM10.3704 77.1333C10.6634 77.1333 10.9498 77.2203 11.1934 77.3833C11.4371 77.5463 11.627 77.778 11.7391 78.049C11.8512 78.3201 11.8806 78.6183 11.8234 78.9061C11.7662 79.1938 11.6251 79.4581 11.4179 79.6655C11.2107 79.873 10.9468 80.0143 10.6594 80.0715C10.372 80.1287 10.0741 80.0994 9.80343 79.9871C9.53273 79.8748 9.30135 79.6847 9.13857 79.4408C8.97578 79.1968 8.88889 78.91 8.88889 78.6167C8.88933 78.2234 9.04556 77.8464 9.32329 77.5683C9.60103 77.2902 9.9776 77.1338 10.3704 77.1333Z" fill="#417F55"/>
<path d="M5.92593 50.4333C4.75389 50.4333 3.60817 50.7813 2.63366 51.4333C1.65915 52.0852 0.899606 53.0119 0.451087 54.0961C0.00256759 55.1803 -0.114785 56.3732 0.113868 57.5242C0.342521 58.6752 0.90691 59.7324 1.73567 60.5622C2.56442 61.392 3.62032 61.9571 4.76984 62.186C5.91935 62.4149 7.11086 62.2974 8.19368 61.8484C9.2765 61.3993 10.202 60.6388 10.8532 59.6631C11.5043 58.6873 11.8519 57.5402 11.8519 56.3667C11.8501 54.7936 11.2252 53.2855 10.1142 52.1731C9.0033 51.0608 7.49704 50.4351 5.92593 50.4333ZM5.92593 59.3333C5.33991 59.3333 4.76705 59.1593 4.27979 58.8334C3.79254 58.5074 3.41277 58.044 3.18851 57.502C2.96425 56.9599 2.90557 56.3634 3.0199 55.7879C3.13422 55.2124 3.41642 54.6838 3.8308 54.2689C4.24517 53.854 4.77312 53.5715 5.34788 53.457C5.92264 53.3425 6.51839 53.4013 7.0598 53.6258C7.60122 53.8504 8.06397 54.2306 8.38954 54.7185C8.71512 55.2063 8.88889 55.7799 8.88889 56.3667C8.88796 57.1532 8.57549 57.9072 8.02003 58.4634C7.46457 59.0195 6.71147 59.3324 5.92593 59.3333Z" fill="#417F55"/>
<path d="M65.1852 57.85C65.1852 58.7301 65.4459 59.5905 65.9342 60.3223C66.4226 61.0541 67.1167 61.6245 67.9288 61.9613C68.7409 62.2981 69.6346 62.3862 70.4967 62.2145C71.3588 62.0428 72.1508 61.619 72.7723 60.9966C73.3939 60.3743 73.8172 59.5814 73.9887 58.7182C74.1602 57.8549 74.0722 56.9602 73.7358 56.1471C73.3994 55.3339 72.8297 54.6389 72.0988 54.15C71.368 53.661 70.5087 53.4 69.6296 53.4C68.4513 53.4014 67.3216 53.8707 66.4885 54.7049C65.6553 55.5391 65.1866 56.6702 65.1852 57.85ZM69.6296 56.3667C69.9226 56.3667 70.2091 56.4537 70.4527 56.6167C70.6963 56.7796 70.8862 57.0113 70.9983 57.2824C71.1105 57.5534 71.1398 57.8516 71.0826 58.1394C71.0255 58.4271 70.8844 58.6914 70.6772 58.8989C70.47 59.1063 70.206 59.2476 69.9187 59.3048C69.6313 59.3621 69.3334 59.3327 69.0627 59.2204C68.792 59.1082 68.5606 58.918 68.3978 58.6741C68.235 58.4302 68.1482 58.1434 68.1482 57.85C68.1486 57.4567 68.3048 57.0797 68.5826 56.8016C68.8603 56.5235 69.2369 56.3671 69.6296 56.3667Z" fill="#417F55"/>
<path d="M74.0741 41.5333C75.2461 41.5333 76.3918 41.1853 77.3663 40.5334C78.3409 39.8814 79.1004 38.9548 79.5489 37.8706C79.9974 36.7864 80.1148 35.5934 79.8861 34.4425C79.6575 33.2915 79.0931 32.2343 78.2643 31.4045C77.4356 30.5747 76.3797 30.0096 75.2302 29.7807C74.0807 29.5517 72.8891 29.6692 71.8063 30.1183C70.7235 30.5674 69.798 31.3279 69.1469 32.3036C68.4957 33.2794 68.1482 34.4265 68.1482 35.6C68.15 37.1731 68.7749 38.6812 69.8858 39.7935C70.9967 40.9058 72.503 41.5315 74.0741 41.5333ZM74.0741 32.6333C74.6601 32.6333 75.233 32.8073 75.7202 33.1333C76.2075 33.4593 76.5872 33.9226 76.8115 34.4647C77.0358 35.0068 77.0944 35.6033 76.9801 36.1788C76.8658 36.7542 76.5836 37.2829 76.1692 37.6978C75.7548 38.1126 75.2269 38.3952 74.6521 38.5097C74.0774 38.6241 73.4816 38.5654 72.9402 38.3408C72.3988 38.1163 71.936 37.7361 71.6105 37.2482C71.2849 36.7603 71.1111 36.1868 71.1111 35.6C71.112 34.8135 71.4245 34.0594 71.98 33.5033C72.5354 32.9471 73.2885 32.6343 74.0741 32.6333Z" fill="#417F55"/>
<path d="M41.0041 49.3425C40.7305 49.09 40.3721 48.9499 40 48.9499C39.6279 48.9499 39.2695 49.09 38.9959 49.3425C37.8513 50.4366 36.7997 51.6241 35.8519 52.8929C33.6889 55.7845 32.5926 58.4506 32.5926 60.8167C32.5926 63.4976 33.3178 65.7532 34.6898 67.3394C35.3582 68.0874 36.1766 68.6857 37.0916 69.0953C38.0066 69.505 38.9977 69.7167 40 69.7167C41.0023 69.7167 41.9934 69.505 42.9084 69.0953C43.8234 68.6857 44.6418 68.0874 45.3102 67.3394C46.6822 65.7532 47.4074 63.4976 47.4074 60.8167C47.4074 58.4506 46.3111 55.7845 44.1481 52.8929C43.2003 51.6241 42.1487 50.4366 41.0041 49.3425ZM40 66.75C37.2593 66.75 35.5556 64.4764 35.5556 60.8167C35.5556 57.9512 38.2137 54.4648 40.0013 52.536C41.7889 54.4613 44.4444 57.9414 44.4444 60.8167C44.4444 64.4764 42.7407 66.75 40 66.75Z" fill="#417F55"/>
</svg>
