<svg width="102" height="102" viewBox="0 0 102 102" fill="none" xmlns="http://www.w3.org/2000/svg">
<path d="M42.4999 102C19.0654 102 0 82.9342 0 59.4994C0 36.0645 19.0654 16.9987 42.4999 16.9987C65.9343 16.9987 84.9997 36.0645 84.9997 59.4994C84.9997 82.9342 65.9343 102 42.4999 102ZM42.4999 23.3738C22.5802 23.3738 6.37498 39.5793 6.37498 59.4994C6.37498 79.4194 22.5802 95.6249 42.4999 95.6249C62.4196 95.6249 78.6247 79.4194 78.6247 59.4994C78.6247 39.5793 62.4196 23.3738 42.4999 23.3738Z" fill="#417F55"/>
<path d="M42.4999 87.1248C27.2679 87.1248 14.875 74.7316 14.875 59.4994C14.875 44.2671 27.2679 31.8739 42.4999 31.8739C57.7318 31.8739 70.1248 44.2671 70.1248 59.4994C70.1248 74.7316 57.7318 87.1248 42.4999 87.1248ZM42.4999 38.249C30.7827 38.249 21.2499 47.7819 21.2499 59.4994C21.2499 71.2168 30.7827 80.7497 42.4999 80.7497C54.2171 80.7497 63.7498 71.2168 63.7498 59.4994C63.7498 47.7819 54.2171 38.249 42.4999 38.249Z" fill="#417F55"/>
<path d="M42.4999 72.2495C35.4704 72.2495 29.7499 66.529 29.7499 59.4994C29.7499 52.4697 35.4704 46.7492 42.4999 46.7492C49.5293 46.7492 55.2498 52.4697 55.2498 59.4994C55.2498 66.529 49.5293 72.2495 42.4999 72.2495ZM42.4999 53.1243C38.9851 53.1243 36.1249 55.9846 36.1249 59.4994C36.1249 63.0142 38.9851 65.8745 42.4999 65.8745C46.0146 65.8745 48.8748 63.0142 48.8748 59.4994C48.8748 55.9846 46.0146 53.1243 42.4999 53.1243Z" fill="#417F55"/>
<path d="M42.4999 62.6869C41.6839 62.6869 40.8679 62.3766 40.2474 61.7519C39.0021 60.5066 39.0021 58.4878 40.2474 57.2426L72.1223 25.3671C73.3675 24.1218 75.3863 24.1218 76.6315 25.3671C77.8768 26.6123 77.8768 28.6311 76.6315 29.8764L44.7566 61.7519C44.1319 62.3766 43.3159 62.6869 42.4999 62.6869Z" fill="#417F55"/>
<path d="M86.0622 29.7489H75.4373C73.6778 29.7489 72.2498 28.3209 72.2498 26.5613V15.9362C72.2498 15.0904 72.5855 14.2787 73.1848 13.6836L85.9347 0.933452C86.8485 0.0196876 88.2212 -0.248066 89.407 0.240691C90.597 0.733699 91.3747 1.89822 91.3747 3.18599V10.6236H98.8122C100.1 10.6236 101.264 11.4014 101.757 12.5914C102.25 13.7814 101.978 15.1542 101.065 16.0637L88.3147 28.8139C87.7197 29.4131 86.908 29.7489 86.0622 29.7489ZM78.6247 23.3738H84.7405L91.1155 16.9987H88.1872C86.4277 16.9987 84.9997 15.5707 84.9997 13.8111V10.8829L78.6247 17.258V23.3738Z" fill="#417F55"/>
</svg>
