<svg width="44" height="44" viewBox="0 0 44 44" fill="none" xmlns="http://www.w3.org/2000/svg">
<path d="M32.9651 0H11C4.95873 0 0 4.95873 0 11.0349V33C0 39.0413 4.95873 44 11 44H32.9651C39.0413 44 44 39.0413 44 32.9651V11.0349C44 4.95873 39.0413 0 32.9651 0ZM20.8127 9.04444C20.8825 7.96191 21.8952 8.34603 22.419 8.27619C28.9841 8.48571 34.6413 14.3873 34.5714 20.7429C34.5714 21.3714 34.781 22.2794 33.8381 22.2794C32.9302 22.2794 33.1746 21.3365 33.0698 20.7079C32.1968 13.9683 29.054 10.7905 22.2095 9.74286C21.6508 9.67302 20.7778 9.77778 20.8127 9.04444ZM30.6254 21.0222C29.5778 21.1619 29.7873 20.254 29.6825 19.6603C28.9841 15.5397 27.5175 14.0381 23.2921 13.1302C22.6635 12.9905 21.6857 13.0952 21.8603 12.1524C22 11.2444 22.873 11.5587 23.5365 11.6286C27.7619 12.1175 31.219 15.7143 31.1841 19.6603C31.1143 20.0794 31.3937 20.8825 30.6254 21.0222ZM28.0063 18.8571C28.0063 19.4159 27.9365 19.9397 27.3079 20.0095C26.854 20.0794 26.5746 19.6952 26.5048 19.2413C26.3302 17.5651 25.4222 16.5524 23.6762 16.273C23.1524 16.2032 22.6635 16.0286 22.9079 15.3302C23.0825 14.8762 23.5016 14.8063 23.9556 14.8063C25.8413 14.7714 28.0063 16.9714 28.0063 18.8571ZM34.6413 31.7429C33.9079 33.7333 31.4286 35.7587 29.2984 35.7238C28.9841 35.654 28.3905 35.5492 27.8667 35.3397C18.5079 31.3937 11.6984 24.8984 7.85714 15.6095C6.56508 12.5016 7.92698 9.84762 11.1746 8.8C11.7683 8.59048 12.327 8.59048 12.9206 8.8C14.3175 9.28889 17.8444 14.073 17.9143 15.4698C17.9841 16.5524 17.2159 17.146 16.4825 17.6349C15.0508 18.5778 15.0508 19.7651 15.6794 21.127C17.0413 24.1302 19.381 26.2254 22.419 27.5524C23.5016 28.0413 24.5841 28.0063 25.3175 26.8889C26.6444 24.8984 28.2857 25.0032 30.0667 26.2254C30.9746 26.854 31.8825 27.4476 32.7206 28.1111C33.873 29.054 35.3397 29.8222 34.6413 31.7429Z" fill="#417F55"/>
</svg>
