<svg width="42" height="42" viewBox="0 0 42 42" fill="none" xmlns="http://www.w3.org/2000/svg">
<path d="M21.0052 0H20.9948C9.41588 0 0 9.4185 0 21C0 25.5938 1.4805 29.8515 3.99787 33.3086L1.38075 41.1101L9.45263 38.5298C12.7733 40.7295 16.7344 42 21.0052 42C32.5841 42 42 32.5789 42 21C42 9.42113 32.5841 0 21.0052 0ZM33.2246 29.6546C32.718 31.0852 30.7073 32.2717 29.1034 32.6182C28.0061 32.8519 26.5729 33.0382 21.7481 31.038C15.5767 28.4813 11.6025 22.2101 11.2928 21.8032C10.9961 21.3964 8.799 18.4826 8.799 15.4691C8.799 12.4556 10.3294 10.9882 10.9462 10.3583C11.4529 9.84113 12.2902 9.60487 13.0935 9.60487C13.3534 9.60487 13.587 9.618 13.797 9.6285C14.4139 9.65475 14.7236 9.6915 15.1305 10.6654C15.6371 11.886 16.8709 14.8995 17.0179 15.2093C17.1675 15.519 17.3171 15.939 17.1071 16.3459C16.9102 16.7659 16.737 16.9522 16.4272 17.3092C16.1175 17.6663 15.8235 17.9393 15.5138 18.3225C15.2302 18.6559 14.91 19.0129 15.267 19.6298C15.624 20.2335 16.8577 22.2469 18.6742 23.8639C21.0184 25.9507 22.9189 26.6175 23.5987 26.901C24.1054 27.111 24.7091 27.0611 25.0793 26.6674C25.5491 26.1608 26.1292 25.3208 26.7199 24.4939C27.1399 23.9006 27.6701 23.8271 28.2266 24.0371C28.7936 24.234 31.794 25.7171 32.4109 26.0242C33.0278 26.334 33.4346 26.481 33.5842 26.7409C33.7313 27.0008 33.7313 28.2214 33.2246 29.6546Z" fill="#418055"/>
</svg>
