<svg width="89" height="89" viewBox="0 0 89 89" fill="none" xmlns="http://www.w3.org/2000/svg">
<path d="M66.404 69.6597L52.8875 67.6328L52.3062 64.7288C58.4629 62.6416 63.5101 58.1672 66.361 52.4066C72.957 50.384 77.5161 44.2789 77.5161 37.3226C77.5161 34.9827 76.9965 32.7319 76.039 30.6749C76.9893 28.7212 77.5161 26.5837 77.5161 24.4032C77.5161 17.4512 72.5465 11.6403 65.9734 10.3283C65.392 4.53756 60.4913 0 54.5484 0H34.4516C28.5087 0 23.608 4.53756 23.0266 10.3283C16.4535 11.6403 11.4839 17.4512 11.4839 24.4032C11.4839 26.5837 12.0107 28.7212 12.961 30.6749C12.0035 32.7319 11.4839 34.9827 11.4839 37.3226C11.4839 40.6342 12.5002 43.7823 14.4108 46.4637C14.484 47.236 14.7137 47.9767 15.0855 48.6572C13.7749 49.7094 12.9194 51.3056 12.9194 53.1129C12.9194 56.2796 15.4946 58.8548 18.6613 58.8548C19.7049 58.8548 20.671 58.5548 21.515 58.0653C22.3864 58.5749 23.3783 58.8548 24.4032 58.8548C25.2459 58.8548 26.0397 58.6625 26.7603 58.3352C29.5322 61.2765 32.9314 63.4814 36.6895 64.7504L36.1125 67.6328L22.5959 69.6597C13.6629 71.0005 7.17742 78.5296 7.17742 87.5645V89H81.8226V87.5645C81.8226 78.5296 75.3371 71.0005 66.404 69.6597ZM55.4427 70.9201L48.1289 79.4526L46.3805 77.3855L52.2559 70.4421L55.4427 70.9201ZM14.3548 24.4032C14.3548 18.0713 19.5068 12.9194 25.8387 12.9194H34.3798V10.0484H25.9679C26.6541 5.98166 30.1911 2.87097 34.4516 2.87097H54.5484C58.7888 2.87097 62.3129 5.95295 63.0235 10.0484H54.6202V12.9194H63.1613C69.4932 12.9194 74.6452 18.0713 74.6452 24.4032C74.6452 25.4999 74.4772 26.5837 74.1714 27.6273C73.7408 27.0775 73.2872 26.5435 72.779 26.0469L70.7693 28.0967C73.2685 30.5457 74.6452 33.8243 74.6452 37.3226C74.6452 42.153 71.9608 46.4838 67.851 48.6974C68.53 46.458 68.9032 44.0866 68.9032 41.629V32.897C68.9032 29.0054 65.7365 25.8387 61.8449 25.8387C50.542 25.8387 39.5935 23.4673 29.304 18.7905L28.6164 18.4775L27.9704 18.8666C23.1142 21.7806 20.0968 27.1105 20.0968 32.7735L20.0982 40.1935H20.0968C18.1919 40.1935 16.5138 41.1352 15.4688 42.5678C14.7395 40.9314 14.3548 39.1586 14.3548 37.3226C14.3548 33.8229 15.7315 30.5457 18.2306 28.0967L16.221 26.0469C15.7142 26.5435 15.2592 27.0775 14.8285 27.6273C14.5228 26.5837 14.3548 25.4999 14.3548 24.4032ZM15.7903 53.1129C15.7903 51.5296 17.078 50.2419 18.6613 50.2419C20.2446 50.2419 21.5323 51.5296 21.5323 53.1129C21.5323 54.6962 20.2446 55.9839 18.6613 55.9839C17.078 55.9839 15.7903 54.6962 15.7903 53.1129ZM23.664 55.8748C24.1204 55.0522 24.4032 54.1192 24.4032 53.1129C24.4032 49.9462 21.828 47.371 18.6613 47.371C18.3297 47.371 18.0081 47.414 17.6909 47.4686C17.3938 47.0121 17.2258 46.4896 17.2258 45.9355C17.2258 44.3521 18.5134 43.0645 20.0968 43.0645C21.0801 43.0645 21.9816 43.5669 22.5156 44.4067L23.2477 45.5651L24.4377 44.8876C24.8899 44.6306 25.3607 44.5 25.8387 44.5C27.422 44.5 28.7097 45.7876 28.7097 47.371C28.7097 48.3543 28.2073 49.2558 27.3675 49.7898L26.2091 50.5219L26.8866 51.7119C27.1436 52.164 27.2742 52.6349 27.2742 53.1129C27.2742 54.6962 25.9866 55.9839 24.4032 55.9839C24.1506 55.9839 23.9037 55.9394 23.664 55.8748ZM28.9953 56.525C29.7088 55.5676 30.1452 54.3948 30.1452 53.1129C30.1452 52.5416 30.0576 51.9789 29.8839 51.4348C30.962 50.3697 31.5806 48.9199 31.5806 47.371C31.5806 44.2043 29.0054 41.629 25.8387 41.629C25.2674 41.629 24.7047 41.7166 24.1606 41.8903C23.8061 41.5314 23.3984 41.2458 22.9692 40.9945L22.9677 32.7735C22.9677 28.358 25.1956 24.1908 28.8288 21.7232C39.2863 26.3598 50.3912 28.7097 61.8449 28.7097C64.1532 28.7097 66.0323 30.5887 66.0323 32.897V41.629C66.0323 53.5019 56.3729 63.1613 44.5 63.1613C38.616 63.1613 33.0491 60.7425 28.9953 56.525ZM44.5 66.0323C46.2254 66.0323 47.9078 65.8471 49.5328 65.504L50.1328 68.5056L44.5 75.1634L38.8657 68.5056L39.4672 65.4983C41.1079 65.8428 42.7918 66.0323 44.5 66.0323ZM36.7441 70.4421L50.018 86.129H46.5944L33.5573 70.9201L36.7441 70.4421ZM23.0223 72.5005L30.2083 71.4225L42.8162 86.129H21.5323V77.5161H18.6613V86.129H10.1144C10.7518 79.177 15.9841 73.5556 23.0223 72.5005ZM70.3387 86.129V77.5161H67.4677V86.129H53.779L50.0065 81.6704L58.7917 71.4225L65.9777 72.5005C73.0159 73.5556 78.2482 79.177 78.8856 86.129H70.3387Z" fill="#417F55"/>
<path d="M55.9839 38.7581C59.9415 38.7581 63.1613 36.1828 63.1613 33.0161H60.2903C60.2903 34.5722 58.318 35.8871 55.9839 35.8871C53.6498 35.8871 51.6774 34.5722 51.6774 33.0161H48.8064C48.8064 36.1828 52.0262 38.7581 55.9839 38.7581Z" fill="#417F55"/>
<path d="M33.0161 35.8871C30.682 35.8871 28.7097 34.5722 28.7097 33.0161H25.8387C25.8387 36.1828 29.0585 38.7581 33.0161 38.7581C36.9738 38.7581 40.1935 36.1828 40.1935 33.0161H37.3226C37.3226 34.5722 35.3502 35.8871 33.0161 35.8871Z" fill="#417F55"/>
<path d="M8.6129 38.7581C8.6129 36.3838 6.68074 34.4516 4.30645 34.4516C1.93216 34.4516 0 36.3838 0 38.7581C0 41.1324 1.93216 43.0645 4.30645 43.0645C6.68074 43.0645 8.6129 41.1324 8.6129 38.7581ZM2.87097 38.7581C2.87097 37.9657 3.51406 37.3226 4.30645 37.3226C5.09884 37.3226 5.74194 37.9657 5.74194 38.7581C5.74194 39.5504 5.09884 40.1935 4.30645 40.1935C3.51406 40.1935 2.87097 39.5504 2.87097 38.7581Z" fill="#417F55"/>
<path d="M10.0484 54.5484C10.0484 52.1741 8.11623 50.2419 5.74194 50.2419C3.36765 50.2419 1.43548 52.1741 1.43548 54.5484C1.43548 56.9227 3.36765 58.8548 5.74194 58.8548C8.11623 58.8548 10.0484 56.9227 10.0484 54.5484ZM5.74194 55.9839C4.94955 55.9839 4.30645 55.3408 4.30645 54.5484C4.30645 53.756 4.94955 53.1129 5.74194 53.1129C6.53432 53.1129 7.17742 53.756 7.17742 54.5484C7.17742 55.3408 6.53432 55.9839 5.74194 55.9839Z" fill="#417F55"/>
<path d="M68.9032 63.1613C68.9032 65.5356 70.8354 67.4677 73.2097 67.4677C75.584 67.4677 77.5161 65.5356 77.5161 63.1613C77.5161 60.787 75.584 58.8548 73.2097 58.8548C70.8354 58.8548 68.9032 60.787 68.9032 63.1613ZM73.2097 61.7258C74.0021 61.7258 74.6452 62.3689 74.6452 63.1613C74.6452 63.9537 74.0021 64.5968 73.2097 64.5968C72.4173 64.5968 71.7742 63.9537 71.7742 63.1613C71.7742 62.3689 72.4173 61.7258 73.2097 61.7258Z" fill="#417F55"/>
<path d="M84.6935 35.8871C87.0678 35.8871 89 33.9549 89 31.5806C89 29.2064 87.0678 27.2742 84.6935 27.2742C82.3193 27.2742 80.3871 29.2064 80.3871 31.5806C80.3871 33.9549 82.3193 35.8871 84.6935 35.8871ZM84.6935 30.1452C85.4859 30.1452 86.129 30.7883 86.129 31.5806C86.129 32.373 85.4859 33.0161 84.6935 33.0161C83.9012 33.0161 83.2581 32.373 83.2581 31.5806C83.2581 30.7883 83.9012 30.1452 84.6935 30.1452Z" fill="#417F55"/>
<path d="M83.2581 44.5H80.3871C80.3871 47.6667 77.8118 50.2419 74.6452 50.2419V53.1129C77.8118 53.1129 80.3871 55.6882 80.3871 58.8548H83.2581C83.2581 55.6882 85.8333 53.1129 89 53.1129V50.2419C85.8333 50.2419 83.2581 47.6667 83.2581 44.5ZM81.8226 54.1034C81.1838 53.1416 80.3584 52.3162 79.3966 51.6774C80.3584 51.0386 81.1838 50.2132 81.8226 49.2515C82.4614 50.2132 83.2868 51.0386 84.2485 51.6774C83.2868 52.3162 82.4614 53.1416 81.8226 54.1034Z" fill="#417F55"/>
</svg>
